<svg width="197" height="48" viewBox="0 0 197 48" fill="none" xmlns="http://www.w3.org/2000/svg">
<mask id="path-1-outside-1_14_2" maskUnits="userSpaceOnUse" x="2" y="9" width="115" height="30" fill="black">
<rect fill="white" x="2" y="9" width="115" height="30"/>
<path d="M26.336 14.88C26.8267 14.88 27.2533 15.0613 27.616 15.424C27.9787 15.7867 28.16 16.2133 28.16 16.704V19.68C28.16 22.88 28.0853 25.5253 27.936 27.616C27.808 29.6853 27.6053 31.3813 27.328 32.704C27.072 34.0267 26.6667 35.0187 26.112 35.68C25.5787 36.32 25.0027 36.7467 24.384 36.96C23.7653 37.1733 22.944 37.28 21.92 37.28C20.832 37.28 19.0827 37.1733 16.672 36.96C16.1813 36.9173 15.776 36.704 15.456 36.32C15.136 35.936 14.9973 35.4987 15.04 35.008L15.2 33.152C15.2427 32.6613 15.456 32.256 15.84 31.936C16.2453 31.616 16.6933 31.4773 17.184 31.52C18.4 31.6267 19.3387 31.68 20 31.68C20.448 31.68 20.7787 31.5093 20.992 31.168C21.2267 30.8053 21.408 29.9733 21.536 28.672C21.6853 27.3493 21.76 25.3653 21.76 22.72V20.608C21.76 20.416 21.6747 20.32 21.504 20.32H16.256C16.0853 20.32 15.9787 20.416 15.936 20.608C15.4453 24.4267 14.5813 27.584 13.344 30.08C12.1067 32.5547 10.3573 34.784 8.096 36.768C7.712 37.088 7.27467 37.2267 6.784 37.184C6.29333 37.1627 5.86667 36.96 5.504 36.576L4.096 35.104C3.75467 34.7413 3.60533 34.3147 3.648 33.824C3.712 33.3333 3.92533 32.928 4.288 32.608C5.93067 31.136 7.2 29.4933 8.096 27.68C8.992 25.8453 9.632 23.488 10.016 20.608C10.0587 20.416 9.984 20.32 9.792 20.32H5.024C4.53333 20.32 4.10667 20.1387 3.744 19.776C3.38133 19.4133 3.2 18.9867 3.2 18.496V16.704C3.2 16.2133 3.38133 15.7867 3.744 15.424C4.10667 15.0613 4.53333 14.88 5.024 14.88H10.208C10.4 14.88 10.496 14.7947 10.496 14.624C10.5387 13.6 10.56 12.7893 10.56 12.192C10.56 11.7013 10.7413 11.2853 11.104 10.944C11.4667 10.5813 11.8933 10.4 12.384 10.4H14.656C15.168 10.4 15.5947 10.5813 15.936 10.944C16.2987 11.3067 16.48 11.744 16.48 12.256C16.48 12.7893 16.4587 13.568 16.416 14.592C16.416 14.784 16.5013 14.88 16.672 14.88H26.336ZM55.712 12.896L57.024 14.464C57.3653 14.848 57.5147 15.296 57.472 15.808C57.4293 16.32 57.216 16.736 56.832 17.056C54.592 18.912 52.1493 20.5547 49.504 21.984C49.3333 22.0907 49.248 22.2293 49.248 22.4V35.936C49.248 36.4267 49.0667 36.8533 48.704 37.216C48.3413 37.5787 47.9147 37.76 47.424 37.76H44.512C44.0213 37.76 43.5947 37.5787 43.232 37.216C42.8693 36.8533 42.688 36.4267 42.688 35.936V25.408C42.688 25.344 42.656 25.2907 42.592 25.248C42.528 25.2053 42.464 25.1947 42.4 25.216C39.3493 26.368 36.3627 27.2 33.44 27.712C32.9493 27.7973 32.4907 27.6907 32.064 27.392C31.6587 27.0933 31.4133 26.6987 31.328 26.208L31.008 24.192C30.9227 23.7013 31.0187 23.264 31.296 22.88C31.5947 22.4747 31.9893 22.2187 32.48 22.112C36.2987 21.4293 40 20.2773 43.584 18.656C47.1893 17.0133 50.3787 15.04 53.152 12.736C53.536 12.416 53.9733 12.2667 54.464 12.288C54.976 12.3093 55.392 12.512 55.712 12.896ZM84.384 24.192C84.8533 24.3413 85.1947 24.6507 85.408 25.12C85.6427 25.568 85.6747 26.0373 85.504 26.528L84.736 28.832C84.5867 29.3013 84.288 29.6533 83.84 29.888C83.392 30.1013 82.9227 30.1227 82.432 29.952C78.144 28.4587 73.7813 27.136 69.344 25.984C69.28 25.9627 69.2267 25.984 69.184 26.048C69.1413 26.0907 69.12 26.144 69.12 26.208V36.096C69.12 36.5867 68.9387 37.0133 68.576 37.376C68.2133 37.7387 67.7867 37.92 67.296 37.92H64.544C64.0533 37.92 63.6267 37.7387 63.264 37.376C62.9013 37.0133 62.72 36.5867 62.72 36.096V12.864C62.72 12.3733 62.9013 11.9467 63.264 11.584C63.6267 11.2213 64.0533 11.04 64.544 11.04H67.296C67.7867 11.04 68.2133 11.2213 68.576 11.584C68.9387 11.9467 69.12 12.3733 69.12 12.864V19.392C69.12 19.584 69.2053 19.7013 69.376 19.744C74.688 21.0667 79.6907 22.5493 84.384 24.192ZM114.208 22.304C114.699 22.368 115.104 22.6027 115.424 23.008C115.744 23.392 115.872 23.8293 115.808 24.32C115.189 28.8427 113.739 32.1387 111.456 34.208C109.173 36.256 105.845 37.3333 101.472 37.44C100.981 37.4613 100.555 37.2907 100.192 36.928C99.8507 36.5653 99.68 36.128 99.68 35.616V13.184C99.68 12.6933 99.8613 12.2667 100.224 11.904C100.587 11.5413 101.013 11.36 101.504 11.36H104.096C104.587 11.36 105.013 11.5413 105.376 11.904C105.739 12.2667 105.92 12.6933 105.92 13.184V30.688C105.92 30.88 106.005 30.9333 106.176 30.848C107.264 30.336 108.096 29.5253 108.672 28.416C109.269 27.2853 109.717 25.6747 110.016 23.584C110.08 23.0933 110.304 22.6987 110.688 22.4C111.093 22.08 111.541 21.952 112.032 22.016L114.208 22.304ZM95.296 11.36C95.7867 11.36 96.2133 11.5413 96.576 11.904C96.9387 12.2667 97.12 12.6933 97.12 13.184V18.08C97.12 22.1547 96.9173 25.376 96.512 27.744C96.128 30.112 95.4773 32 94.56 33.408C93.6427 34.816 92.3093 36.032 90.56 37.056C90.112 37.312 89.6427 37.376 89.152 37.248C88.6613 37.12 88.2667 36.8427 87.968 36.416L86.592 34.304C86.3147 33.8987 86.2293 33.4613 86.336 32.992C86.464 32.5227 86.7413 32.16 87.168 31.904C88.0427 31.3493 88.7147 30.7947 89.184 30.24C89.6747 29.664 90.0693 28.832 90.368 27.744C90.6667 26.656 90.848 25.4187 90.912 24.032C90.9973 22.624 91.04 20.64 91.04 18.08V13.184C91.04 12.6933 91.2213 12.2667 91.584 11.904C91.9467 11.5413 92.3733 11.36 92.864 11.36H95.296Z"/>
</mask>
<path d="M27.616 15.424L26.9089 16.1311H26.9089L27.616 15.424ZM27.936 27.616L26.9385 27.5447L26.9379 27.5543L27.936 27.616ZM27.328 32.704L26.3493 32.4988L26.3477 32.5064L26.3462 32.514L27.328 32.704ZM26.112 35.68L25.3458 35.0374L25.3438 35.0398L26.112 35.68ZM24.384 36.96L24.058 36.0146L24.384 36.96ZM16.672 36.96L16.7602 35.9639L16.7586 35.9638L16.672 36.96ZM15.456 36.32L14.6878 36.9602L14.6878 36.9602L15.456 36.32ZM15.04 35.008L16.0362 35.0946L16.0363 35.0939L15.04 35.008ZM15.2 33.152L14.2038 33.0654L14.2037 33.0661L15.2 33.152ZM15.84 31.936L15.2204 31.1511L15.21 31.1593L15.1998 31.1678L15.84 31.936ZM17.184 31.52L17.2714 30.5238L17.2706 30.5238L17.184 31.52ZM20.992 31.168L20.1524 30.6247L20.1482 30.6313L20.144 30.638L20.992 31.168ZM21.536 28.672L20.5423 28.5598L20.5415 28.567L20.5408 28.5741L21.536 28.672ZM15.936 20.608L14.9598 20.3911L14.95 20.4355L14.9442 20.4806L15.936 20.608ZM13.344 30.08L14.2384 30.5272L14.24 30.5241L13.344 30.08ZM8.096 36.768L8.73619 37.5362L8.74595 37.5281L8.75551 37.5197L8.096 36.768ZM6.784 37.184L6.87063 36.1878L6.84906 36.1859L6.82744 36.1849L6.784 37.184ZM5.504 36.576L6.23103 35.8894L6.22664 35.8848L5.504 36.576ZM4.096 35.104L3.36778 35.7894L3.37336 35.7952L4.096 35.104ZM3.648 33.824L2.6564 33.6947L2.65362 33.716L2.65176 33.7374L3.648 33.824ZM4.288 32.608L4.94964 33.3579L4.95536 33.3527L4.288 32.608ZM8.096 27.68L8.99254 28.123L8.99457 28.1188L8.096 27.68ZM10.016 20.608L9.03981 20.3911L9.03047 20.4331L9.02477 20.4758L10.016 20.608ZM3.744 19.776L4.45111 19.0689L3.744 19.776ZM3.744 15.424L4.45111 16.1311L4.45111 16.1311L3.744 15.424ZM10.496 14.624L9.49687 14.5824L9.496 14.6032V14.624H10.496ZM11.104 10.944L11.7894 11.6722L11.8004 11.6618L11.8111 11.6511L11.104 10.944ZM15.936 10.944L15.2078 11.6294L15.2182 11.6404L15.2289 11.6511L15.936 10.944ZM16.416 14.592L15.4169 14.5504L15.416 14.5712V14.592H16.416ZM26.336 15.88C26.5484 15.88 26.7243 15.9465 26.9089 16.1311L28.3231 14.7169C27.7824 14.1762 27.105 13.88 26.336 13.88V15.88ZM26.9089 16.1311C27.0935 16.3157 27.16 16.4916 27.16 16.704H29.16C29.16 15.935 28.8638 15.2576 28.3231 14.7169L26.9089 16.1311ZM27.16 16.704V19.68H29.16V16.704H27.16ZM27.16 19.68C27.16 22.8672 27.0855 25.4867 26.9385 27.5448L28.9335 27.6872C29.0851 25.564 29.16 22.8928 29.16 19.68H27.16ZM26.9379 27.5543C26.8115 29.5979 26.6129 31.2413 26.3493 32.4988L28.3067 32.9092C28.5977 31.5213 28.8045 29.7727 28.9341 27.6777L26.9379 27.5543ZM26.3462 32.514C26.1061 33.7549 25.7467 34.5594 25.3458 35.0374L26.8782 36.3226C27.5866 35.478 28.038 34.2985 28.3098 32.894L26.3462 32.514ZM25.3438 35.0398C24.8958 35.5774 24.463 35.875 24.058 36.0146L24.71 37.9054C25.5423 37.6184 26.2615 37.0626 26.8802 36.3202L25.3438 35.0398ZM24.058 36.0146C23.5862 36.1773 22.8884 36.28 21.92 36.28V38.28C22.9996 38.28 23.9445 38.1693 24.71 37.9054L24.058 36.0146ZM21.92 36.28C20.8796 36.28 19.168 36.177 16.7602 35.9639L16.5838 37.9561C18.9973 38.1697 20.7844 38.28 21.92 38.28V36.28ZM16.7586 35.9638C16.538 35.9446 16.3764 35.8625 16.2242 35.6798L14.6878 36.9602C15.1756 37.5455 15.8247 37.8901 16.5854 37.9562L16.7586 35.9638ZM16.2242 35.6798C16.0703 35.4951 16.0168 35.3181 16.0362 35.0946L14.0438 34.9214C13.9779 35.6793 14.2017 36.3769 14.6878 36.9602L16.2242 35.6798ZM16.0363 35.0939L16.1963 33.2379L14.2037 33.0661L14.0437 34.9221L16.0363 35.0939ZM16.1962 33.2386C16.2154 33.018 16.2975 32.8564 16.4802 32.7042L15.1998 31.1678C14.6145 31.6556 14.2699 32.3047 14.2038 33.0654L16.1962 33.2386ZM16.4596 32.7209C16.6758 32.5503 16.8737 32.4968 17.0974 32.5162L17.2706 30.5238C16.5129 30.4579 15.8149 30.6817 15.2204 31.1511L16.4596 32.7209ZM17.0966 32.5162C18.3218 32.6236 19.2947 32.68 20 32.68V30.68C19.3826 30.68 18.4782 30.6297 17.2714 30.5238L17.0966 32.5162ZM20 32.68C20.7464 32.68 21.4206 32.369 21.84 31.698L20.144 30.638C20.1326 30.6562 20.1255 30.663 20.1246 30.6638C20.124 30.6644 20.1241 30.6643 20.1247 30.6638C20.1253 30.6634 20.1257 30.6632 20.1254 30.6634C20.1253 30.6634 20.1182 30.6672 20.0999 30.6712C20.0809 30.6753 20.0487 30.68 20 30.68V32.68ZM21.8316 31.7113C22.0508 31.3725 22.1847 30.927 22.2811 30.4849C22.3831 30.0166 22.4652 29.4411 22.5312 28.7699L20.5408 28.5741C20.4788 29.2042 20.4062 29.6954 20.3269 30.059C20.2874 30.2403 20.2488 30.3782 20.2136 30.4792C20.1963 30.529 20.1812 30.5657 20.1694 30.5913C20.1574 30.6173 20.1511 30.6269 20.1524 30.6247L21.8316 31.7113ZM22.5297 28.7842C22.6856 27.4037 22.76 25.3739 22.76 22.72H20.76C20.76 25.3568 20.6851 27.295 20.5423 28.5598L22.5297 28.7842ZM22.76 22.72V20.608H20.76V22.72H22.76ZM22.76 20.608C22.76 20.385 22.713 20.0309 22.4434 19.7276C22.1539 19.4019 21.776 19.32 21.504 19.32V21.32C21.4027 21.32 21.1528 21.2861 20.9486 21.0564C20.7643 20.8491 20.76 20.639 20.76 20.608H22.76ZM21.504 19.32H16.256V21.32H21.504V19.32ZM16.256 19.32C15.973 19.32 15.6497 19.4051 15.379 19.6487C15.1231 19.879 15.0099 20.1655 14.9598 20.3911L16.9122 20.8249C16.9047 20.8585 16.8662 21.001 16.717 21.1353C16.553 21.2829 16.3683 21.32 16.256 21.32V19.32ZM14.9442 20.4806C14.4626 24.228 13.6212 27.2693 12.448 29.6359L14.24 30.5241C15.5415 27.8987 16.428 24.6253 16.9278 20.7354L14.9442 20.4806ZM12.4496 29.6328C11.275 31.982 9.6091 34.1101 7.43649 36.0163L8.75551 37.5197C11.1056 35.4579 12.9384 33.1274 14.2384 30.5272L12.4496 29.6328ZM7.45582 35.9998C7.27113 36.1537 7.09407 36.2072 6.87063 36.1878L6.69737 38.1802C7.45526 38.2461 8.15287 38.0223 8.73619 37.5362L7.45582 35.9998ZM6.82744 36.1849C6.61739 36.1758 6.42994 36.1 6.23101 35.8894L4.77699 37.2626C5.30339 37.82 5.96928 38.1495 6.74056 38.1831L6.82744 36.1849ZM6.22664 35.8848L4.81864 34.4128L3.37336 35.7952L4.78136 37.2672L6.22664 35.8848ZM4.8242 34.4186C4.67558 34.2607 4.62656 34.1139 4.64424 33.9106L2.65176 33.7374C2.5841 34.5154 2.83375 35.2219 3.3678 35.7894L4.8242 34.4186ZM4.6396 33.9533C4.6731 33.6965 4.77294 33.5137 4.94962 33.3578L3.62638 31.8582C3.07772 32.3423 2.7509 32.9701 2.6564 33.6947L4.6396 33.9533ZM4.95536 33.3527C6.68432 31.8034 8.03515 30.0605 8.99253 28.123L7.19947 27.237C6.36485 28.9261 5.17702 30.4686 3.62064 31.8633L4.95536 33.3527ZM8.99457 28.1188C9.95306 26.1562 10.6145 23.6855 11.0072 20.7402L9.02477 20.4758C8.64948 23.2905 8.03094 25.5345 7.19743 27.2412L8.99457 28.1188ZM10.9922 20.8249C11.0388 20.6153 11.0897 20.1746 10.7814 19.7781C10.4663 19.3729 10.0165 19.32 9.792 19.32V21.32C9.75947 21.32 9.44307 21.3151 9.20265 21.0059C8.96893 20.7054 9.0359 20.4087 9.03981 20.3911L10.9922 20.8249ZM9.792 19.32H5.024V21.32H9.792V19.32ZM5.024 19.32C4.81164 19.32 4.6357 19.2535 4.45111 19.0689L3.03689 20.4831C3.57763 21.0238 4.25503 21.32 5.024 21.32V19.32ZM4.45111 19.0689C4.26651 18.8843 4.2 18.7084 4.2 18.496H2.2C2.2 19.265 2.49615 19.9424 3.03689 20.4831L4.45111 19.0689ZM4.2 18.496V16.704H2.2V18.496H4.2ZM4.2 16.704C4.2 16.4916 4.26651 16.3157 4.45111 16.1311L3.03689 14.7169C2.49615 15.2576 2.2 15.935 2.2 16.704H4.2ZM4.45111 16.1311C4.6357 15.9465 4.81164 15.88 5.024 15.88V13.88C4.25503 13.88 3.57763 14.1762 3.03689 14.7169L4.45111 16.1311ZM5.024 15.88H10.208V13.88H5.024V15.88ZM10.208 15.88C10.431 15.88 10.7851 15.833 11.0884 15.5634C11.4141 15.2739 11.496 14.896 11.496 14.624H9.496C9.496 14.5227 9.52991 14.2728 9.75964 14.0686C9.96692 13.8843 10.177 13.88 10.208 13.88V15.88ZM11.4951 14.6656C11.538 13.636 11.56 12.8096 11.56 12.192H9.56C9.56 12.7691 9.5393 13.564 9.49687 14.5824L11.4951 14.6656ZM11.56 12.192C11.56 11.9817 11.6241 11.8278 11.7894 11.6722L10.4186 10.2158C9.8586 10.7429 9.56 11.4209 9.56 12.192H11.56ZM11.8111 11.6511C11.9957 11.4665 12.1716 11.4 12.384 11.4V9.4C11.615 9.4 10.9376 9.69615 10.3969 10.2369L11.8111 11.6511ZM12.384 11.4H14.656V9.4H12.384V11.4ZM14.656 11.4C14.901 11.4 15.0614 11.4738 15.2078 11.6294L16.6642 10.2586C16.128 9.6889 15.435 9.4 14.656 9.4V11.4ZM15.2289 11.6511C15.4044 11.8266 15.48 12.0097 15.48 12.256H17.48C17.48 11.4783 17.1929 10.7867 16.6431 10.2369L15.2289 11.6511ZM15.48 12.256C15.48 12.7681 15.4594 13.5301 15.4169 14.5504L17.4151 14.6336C17.458 13.6059 17.48 12.8106 17.48 12.256H15.48ZM15.416 14.592C15.416 14.815 15.463 15.1691 15.7326 15.4724C16.0221 15.7981 16.4 15.88 16.672 15.88V13.88C16.7733 13.88 17.0232 13.9139 17.2274 14.1436C17.4117 14.3509 17.416 14.561 17.416 14.592H15.416ZM16.672 15.88H26.336V13.88H16.672V15.88ZM55.712 12.896L54.9438 13.5362L54.9451 13.5377L55.712 12.896ZM57.024 14.464L56.2571 15.1057L56.2667 15.1172L56.2766 15.1284L57.024 14.464ZM57.472 15.808L58.4685 15.891V15.891L57.472 15.808ZM56.832 17.056L57.47 17.826L57.4722 17.8242L56.832 17.056ZM49.504 21.984L49.0286 21.1042L49.0008 21.1192L48.974 21.136L49.504 21.984ZM43.232 37.216L42.5249 37.9231L43.232 37.216ZM42.592 25.248L43.1467 24.416L43.1467 24.4159L42.592 25.248ZM42.4 25.216L42.0838 24.2673L42.0651 24.2735L42.0467 24.2805L42.4 25.216ZM33.44 27.712L33.6113 28.6972L33.6126 28.697L33.44 27.712ZM32.064 27.392L31.4708 28.1971L31.4806 28.2043L31.4905 28.2112L32.064 27.392ZM31.328 26.208L30.3404 26.3648L30.3415 26.3721L30.3428 26.3793L31.328 26.208ZM31.008 24.192L31.9956 24.0352L31.9945 24.0279L31.9932 24.0207L31.008 24.192ZM31.296 22.88L30.4909 22.2868L30.4853 22.2945L31.296 22.88ZM32.48 22.112L32.304 21.1276L32.2857 21.1309L32.2676 21.1348L32.48 22.112ZM43.584 18.656L43.9962 19.5671L43.9986 19.566L43.584 18.656ZM53.152 12.736L53.791 13.5052L53.7922 13.5042L53.152 12.736ZM54.464 12.288L54.4206 13.2871L54.4224 13.2871L54.464 12.288ZM54.9451 13.5377L56.2571 15.1057L57.7909 13.8223L56.4789 12.2543L54.9451 13.5377ZM56.2766 15.1284C56.4361 15.3078 56.4954 15.4857 56.4755 15.725L58.4685 15.891C58.5339 15.1063 58.2946 14.3882 57.7714 13.7996L56.2766 15.1284ZM56.4755 15.725C56.4543 15.9784 56.3637 16.1445 56.1918 16.2878L57.4722 17.8242C58.0683 17.3275 58.4043 16.6616 58.4685 15.891L56.4755 15.725ZM56.194 16.286C54.0061 18.0988 51.6182 19.705 49.0286 21.1042L49.9794 22.8638C52.6805 21.4043 55.1779 19.7252 57.47 17.826L56.194 16.286ZM48.974 21.136C48.5722 21.3871 48.248 21.818 48.248 22.4H50.248C50.248 22.4904 50.2228 22.5961 50.1637 22.6921C50.1087 22.7814 50.0492 22.8225 50.034 22.832L48.974 21.136ZM48.248 22.4V35.936H50.248V22.4H48.248ZM48.248 35.936C48.248 36.1484 48.1815 36.3243 47.9969 36.5089L49.4111 37.9231C49.9518 37.3824 50.248 36.705 50.248 35.936H48.248ZM47.9969 36.5089C47.8123 36.6935 47.6364 36.76 47.424 36.76V38.76C48.193 38.76 48.8704 38.4638 49.4111 37.9231L47.9969 36.5089ZM47.424 36.76H44.512V38.76H47.424V36.76ZM44.512 36.76C44.2996 36.76 44.1237 36.6935 43.9391 36.5089L42.5249 37.9231C43.0656 38.4638 43.743 38.76 44.512 38.76V36.76ZM43.9391 36.5089C43.7545 36.3243 43.688 36.1484 43.688 35.936H41.688C41.688 36.705 41.9842 37.3824 42.5249 37.9231L43.9391 36.5089ZM43.688 35.936V25.408H41.688V35.936H43.688ZM43.688 25.408C43.688 24.9389 43.4244 24.6011 43.1467 24.416L42.0373 26.08C41.9746 26.0382 41.8825 25.9612 41.8065 25.8345C41.7265 25.7011 41.688 25.5517 41.688 25.408H43.688ZM43.1467 24.4159C42.8668 24.2293 42.4841 24.1339 42.0838 24.2673L42.7162 26.1647C42.5999 26.2035 42.467 26.217 42.3316 26.1944C42.2006 26.1726 42.1015 26.1228 42.0373 26.0801L43.1467 24.4159ZM42.0467 24.2805C39.0489 25.4125 36.1227 26.2268 33.2674 26.727L33.6126 28.697C36.6026 28.1732 39.6497 27.3235 42.7533 26.1515L42.0467 24.2805ZM33.2687 26.7268C33.0514 26.7646 32.8586 26.7276 32.6375 26.5728L31.4905 28.2112C32.1227 28.6538 32.8473 28.8301 33.6113 28.6972L33.2687 26.7268ZM32.6572 26.5869C32.4568 26.4393 32.3539 26.2704 32.3132 26.0367L30.3428 26.3793C30.4728 27.1269 30.8606 27.7474 31.4708 28.1971L32.6572 26.5869ZM32.3156 26.0512L31.9956 24.0352L30.0204 24.3488L30.3404 26.3648L32.3156 26.0512ZM31.9932 24.0207C31.9514 23.7802 31.996 23.6188 32.1067 23.4655L30.4853 22.2945C30.0414 22.9092 29.8939 23.6224 30.0228 24.3633L31.9932 24.0207ZM32.1011 23.4732C32.2559 23.2631 32.4401 23.144 32.6924 23.0892L32.2676 21.1348C31.5385 21.2933 30.9335 21.6863 30.4909 22.2868L32.1011 23.4732ZM32.656 23.0964C36.5573 22.399 40.3378 21.2221 43.9962 19.5671L43.1718 17.7449C39.6622 19.3326 36.0401 20.4597 32.304 21.1276L32.656 23.0964ZM43.9986 19.566C47.6768 17.8901 50.9431 15.8712 53.791 13.5052L52.513 11.9668C49.8142 14.2088 46.7019 16.1365 43.1694 17.746L43.9986 19.566ZM53.7922 13.5042C53.9887 13.3404 54.1834 13.2767 54.4206 13.2871L54.5074 11.2889C53.7633 11.2566 53.0833 11.4916 52.5118 11.9678L53.7922 13.5042ZM54.4224 13.2871C54.6604 13.2971 54.8096 13.3751 54.9438 13.5362L56.4802 12.2558C55.9744 11.6489 55.2915 11.3216 54.5056 11.2889L54.4224 13.2871ZM84.384 24.192L84.0536 25.1359L84.0672 25.1406L84.0808 25.1449L84.384 24.192ZM85.408 25.12L84.4976 25.5338L84.5092 25.5592L84.5222 25.584L85.408 25.12ZM85.504 26.528L84.5594 26.1995L84.5553 26.2118L85.504 26.528ZM84.736 28.832L83.7872 28.5157L83.7831 28.5288L84.736 28.832ZM83.84 29.888L84.2699 30.7909L84.2871 30.7827L84.304 30.7738L83.84 29.888ZM82.432 29.952L82.1031 30.8964L82.1035 30.8965L82.432 29.952ZM69.344 25.984L69.0278 26.9327L69.0599 26.9434L69.0927 26.9519L69.344 25.984ZM69.184 26.048L69.8911 26.7551L69.9611 26.6851L70.0161 26.6027L69.184 26.048ZM63.264 11.584L63.9711 12.2911V12.2911L63.264 11.584ZM68.576 11.584L67.8689 12.2911V12.2911L68.576 11.584ZM69.376 19.744L69.1335 20.7141L69.1344 20.7144L69.376 19.744ZM84.0808 25.1449C84.2667 25.2041 84.3951 25.3083 84.4976 25.5338L86.3184 24.7062C85.9942 23.993 85.44 23.4786 84.6872 23.2391L84.0808 25.1449ZM84.5222 25.584C84.6247 25.7798 84.6422 25.9617 84.5595 26.1995L86.4485 26.8565C86.7071 26.1129 86.6606 25.3562 86.2938 24.656L84.5222 25.584ZM84.5553 26.2118L83.7873 28.5158L85.6847 29.1482L86.4527 26.8442L84.5553 26.2118ZM83.7831 28.5288C83.716 28.7397 83.5976 28.8861 83.376 29.0022L84.304 30.7738C84.9784 30.4206 85.4574 29.863 85.6889 29.1352L83.7831 28.5288ZM83.4101 28.9851C83.2117 29.0796 83.0157 29.0963 82.7605 29.0075L82.1035 30.8965C82.8296 31.1491 83.5723 31.1231 84.2699 30.7909L83.4101 28.9851ZM82.7609 29.0076C78.4471 27.5053 74.0585 26.1748 69.5953 25.0161L69.0927 26.9519C73.5041 28.0972 77.8409 29.412 82.1031 30.8964L82.7609 29.0076ZM69.6602 25.0353C69.445 24.9636 69.1681 24.9421 68.8846 25.0555C68.616 25.163 68.4481 25.349 68.352 25.4933L70.0161 26.6027C69.9625 26.683 69.8426 26.8264 69.6274 26.9125C69.3973 27.0045 69.179 26.9831 69.0278 26.9327L69.6602 25.0353ZM68.4769 25.3409C68.2344 25.5834 68.12 25.8966 68.12 26.208H70.12C70.12 26.2887 70.1062 26.3872 70.0645 26.4914C70.0223 26.5968 69.9606 26.6856 69.8911 26.7551L68.4769 25.3409ZM68.12 26.208V36.096H70.12V26.208H68.12ZM68.12 36.096C68.12 36.3084 68.0535 36.4843 67.8689 36.6689L69.2831 38.0831C69.8238 37.5424 70.12 36.865 70.12 36.096H68.12ZM67.8689 36.6689C67.6843 36.8535 67.5084 36.92 67.296 36.92V38.92C68.065 38.92 68.7424 38.6238 69.2831 38.0831L67.8689 36.6689ZM67.296 36.92H64.544V38.92H67.296V36.92ZM64.544 36.92C64.3316 36.92 64.1557 36.8535 63.9711 36.6689L62.5569 38.0831C63.0976 38.6238 63.775 38.92 64.544 38.92V36.92ZM63.9711 36.6689C63.7865 36.4843 63.72 36.3084 63.72 36.096H61.72C61.72 36.865 62.0162 37.5424 62.5569 38.0831L63.9711 36.6689ZM63.72 36.096V12.864H61.72V36.096H63.72ZM63.72 12.864C63.72 12.6516 63.7865 12.4757 63.9711 12.2911L62.5569 10.8769C62.0162 11.4176 61.72 12.095 61.72 12.864H63.72ZM63.9711 12.2911C64.1557 12.1065 64.3316 12.04 64.544 12.04V10.04C63.775 10.04 63.0976 10.3362 62.5569 10.8769L63.9711 12.2911ZM64.544 12.04H67.296V10.04H64.544V12.04ZM67.296 12.04C67.5084 12.04 67.6843 12.1065 67.8689 12.2911L69.2831 10.8769C68.7424 10.3362 68.065 10.04 67.296 10.04V12.04ZM67.8689 12.2911C68.0535 12.4757 68.12 12.6516 68.12 12.864H70.12C70.12 12.095 69.8238 11.4176 69.2831 10.8769L67.8689 12.2911ZM68.12 12.864V19.392H70.12V12.864H68.12ZM68.12 19.392C68.12 19.6315 68.1736 19.9349 68.3753 20.2122C68.5837 20.4988 68.8707 20.6485 69.1335 20.7141L69.6185 18.7739C69.7106 18.7969 69.8696 18.8666 69.9927 19.0358C70.1091 19.1958 70.12 19.3445 70.12 19.392H68.12ZM69.1344 20.7144C74.4194 22.0303 79.3922 23.5044 84.0536 25.1359L84.7143 23.2481C79.9891 21.5943 74.9566 20.103 69.6176 18.7736L69.1344 20.7144ZM114.208 22.304L114.077 23.2954L114.079 23.2956L114.208 22.304ZM115.424 23.008L114.639 23.6276L114.647 23.638L114.656 23.6482L115.424 23.008ZM115.808 24.32L116.799 24.4555L116.8 24.4493L115.808 24.32ZM111.456 34.208L112.124 34.9523L112.128 34.9489L111.456 34.208ZM101.472 37.44L101.448 36.4403L101.438 36.4405L101.429 36.4409L101.472 37.44ZM100.192 36.928L99.4638 37.6134L99.4742 37.6244L99.4849 37.6351L100.192 36.928ZM100.224 11.904L100.931 12.6111L100.931 12.6111L100.224 11.904ZM106.176 30.848L105.75 29.9432L105.739 29.9482L105.729 29.9536L106.176 30.848ZM108.672 28.416L107.788 27.9489L107.785 27.9552L108.672 28.416ZM110.016 23.584L111.006 23.7254L111.008 23.7133L110.016 23.584ZM110.688 22.4L111.302 23.1894L111.308 23.1849L110.688 22.4ZM112.032 22.016L112.163 21.0246L112.161 21.0244L112.032 22.016ZM96.576 11.904L95.8689 12.6111V12.6111L96.576 11.904ZM96.512 27.744L95.5263 27.5753L95.5249 27.5839L96.512 27.744ZM94.56 33.408L95.3979 33.9539L94.56 33.408ZM90.56 37.056L91.0562 37.9243L91.0652 37.919L90.56 37.056ZM89.152 37.248L89.4044 36.2804L89.152 37.248ZM87.968 36.416L87.1301 36.9619L87.1392 36.9758L87.1488 36.9895L87.968 36.416ZM86.592 34.304L87.4299 33.7581L87.4237 33.7486L87.4173 33.7393L86.592 34.304ZM86.336 32.992L85.3712 32.7289L85.3656 32.7495L85.3609 32.7704L86.336 32.992ZM87.168 31.904L87.6825 32.7615L87.6931 32.7551L87.7035 32.7485L87.168 31.904ZM89.184 30.24L88.4228 29.5915L88.4206 29.5941L89.184 30.24ZM90.368 27.744L91.3323 28.0087L90.368 27.744ZM90.912 24.032L89.9138 23.9715L89.9134 23.9787L89.9131 23.9859L90.912 24.032ZM91.584 11.904L92.2911 12.6111L92.2911 12.6111L91.584 11.904ZM114.079 23.2956C114.298 23.3243 114.473 23.4171 114.639 23.6276L116.209 22.3884C115.735 21.7882 115.099 21.4117 114.337 21.3124L114.079 23.2956ZM114.656 23.6482C114.799 23.8205 114.844 23.9796 114.816 24.1907L116.8 24.4493C116.9 23.6791 116.689 22.9635 116.192 22.3678L114.656 23.6482ZM114.817 24.1845C114.216 28.5828 112.826 31.6164 110.784 33.4671L112.128 34.9489C114.651 32.6609 116.163 29.1025 116.799 24.4555L114.817 24.1845ZM110.788 33.4637C108.745 35.2966 105.683 36.337 101.448 36.4403L101.496 38.4397C106.008 38.3297 109.601 37.2154 112.124 34.9523L110.788 33.4637ZM101.429 36.4409C101.232 36.4495 101.073 36.3953 100.899 36.2209L99.4849 37.6351C100.036 38.1861 100.731 38.4732 101.515 38.4391L101.429 36.4409ZM100.92 36.2426C100.759 36.0712 100.68 35.8812 100.68 35.616H98.68C98.68 36.3748 98.9425 37.0595 99.4638 37.6134L100.92 36.2426ZM100.68 35.616V13.184H98.68V35.616H100.68ZM100.68 13.184C100.68 12.9716 100.747 12.7957 100.931 12.6111L99.5169 11.1969C98.9762 11.7376 98.68 12.415 98.68 13.184H100.68ZM100.931 12.6111C101.116 12.4265 101.292 12.36 101.504 12.36V10.36C100.735 10.36 100.058 10.6562 99.5169 11.1969L100.931 12.6111ZM101.504 12.36H104.096V10.36H101.504V12.36ZM104.096 12.36C104.308 12.36 104.484 12.4265 104.669 12.6111L106.083 11.1969C105.542 10.6562 104.865 10.36 104.096 10.36V12.36ZM104.669 12.6111C104.853 12.7957 104.92 12.9716 104.92 13.184H106.92C106.92 12.415 106.624 11.7376 106.083 11.1969L104.669 12.6111ZM104.92 13.184V30.688H106.92V13.184H104.92ZM104.92 30.688C104.92 30.8286 104.933 31.3942 105.454 31.72C105.98 32.0486 106.496 31.806 106.623 31.7424L105.729 29.9536C105.744 29.9462 105.819 29.9088 105.94 29.8937C106.071 29.8774 106.291 29.8846 106.514 30.024C106.736 30.1628 106.838 30.3562 106.881 30.4775C106.92 30.5901 106.92 30.6725 106.92 30.688H104.92ZM106.602 31.7528C107.896 31.1436 108.887 30.1725 109.56 28.8768L107.785 27.9552C107.305 28.8782 106.632 29.5284 105.75 29.9432L106.602 31.7528ZM109.556 28.8831C110.231 27.606 110.7 25.8658 111.006 23.7254L109.026 23.4426C108.734 25.4836 108.308 26.9647 107.788 27.9489L109.556 28.8831ZM111.008 23.7133C111.038 23.4788 111.13 23.3232 111.302 23.1894L110.074 21.6106C109.478 22.0741 109.122 22.7079 109.024 23.4547L111.008 23.7133ZM111.308 23.1849C111.512 23.0238 111.692 22.9801 111.903 23.0076L112.161 21.0244C111.391 20.9239 110.675 21.1362 110.068 21.6151L111.308 23.1849ZM111.901 23.0074L114.077 23.2954L114.339 21.3126L112.163 21.0246L111.901 23.0074ZM95.296 12.36C95.5084 12.36 95.6843 12.4265 95.8689 12.6111L97.2831 11.1969C96.7424 10.6562 96.065 10.36 95.296 10.36V12.36ZM95.8689 12.6111C96.0535 12.7957 96.12 12.9716 96.12 13.184H98.12C98.12 12.415 97.8239 11.7376 97.2831 11.1969L95.8689 12.6111ZM96.12 13.184V18.08H98.12V13.184H96.12ZM96.12 18.08C96.12 22.1313 95.9178 25.2882 95.5263 27.5753L97.4977 27.9127C97.9169 25.4638 98.12 22.1781 98.12 18.08H96.12ZM95.5249 27.5839C95.1544 29.8688 94.5381 31.6097 93.7221 32.8621L95.3979 33.9539C96.4165 32.3903 97.1016 30.3552 97.4991 27.9041L95.5249 27.5839ZM93.7221 32.8621C92.9053 34.1159 91.6975 35.2314 90.0548 36.193L91.0652 37.919C92.9212 36.8326 94.38 35.5161 95.3979 33.9539L93.7221 32.8621ZM90.0639 36.1878C89.8384 36.3166 89.6373 36.3411 89.4044 36.2804L88.8996 38.2156C89.6481 38.4109 90.3857 38.3074 91.0561 37.9242L90.0639 36.1878ZM89.4044 36.2804C89.1502 36.2141 88.9538 36.0805 88.7872 35.8425L87.1488 36.9895C87.5796 37.6049 88.1725 38.0259 88.8996 38.2156L89.4044 36.2804ZM88.8059 35.8701L87.4299 33.7581L85.7541 34.8499L87.1301 36.9619L88.8059 35.8701ZM87.4173 33.7393C87.2936 33.5585 87.2676 33.4052 87.3111 33.2136L85.3609 32.7704C85.1911 33.5175 85.3358 34.2389 85.7667 34.8687L87.4173 33.7393ZM87.3008 33.2551C87.3592 33.0408 87.4713 32.8882 87.6825 32.7615L86.6535 31.0465C86.0114 31.4318 85.5688 32.0045 85.3712 32.7289L87.3008 33.2551ZM87.7035 32.7485C88.6306 32.1606 89.3913 31.5431 89.9474 30.8859L88.4206 29.5941C88.038 30.0462 87.4548 30.538 86.6325 31.0595L87.7035 32.7485ZM89.9452 30.8885C90.5659 30.1599 91.0123 29.1746 91.3323 28.0087L89.4037 27.4793C89.1264 28.4894 88.7835 29.1681 88.4228 29.5915L89.9452 30.8885ZM91.3323 28.0087C91.6545 26.8352 91.8443 25.5225 91.9109 24.0781L89.9131 23.9859C89.8517 25.3148 89.6789 26.4768 89.4037 27.4793L91.3323 28.0087ZM91.9102 24.0925C91.9973 22.6544 92.04 20.6468 92.04 18.08H90.04C90.04 20.6332 89.9973 22.5936 89.9138 23.9715L91.9102 24.0925ZM92.04 18.08V13.184H90.04V18.08H92.04ZM92.04 13.184C92.04 12.9716 92.1065 12.7957 92.2911 12.6111L90.8769 11.1969C90.3362 11.7376 90.04 12.415 90.04 13.184H92.04ZM92.2911 12.6111C92.4757 12.4265 92.6516 12.36 92.864 12.36V10.36C92.095 10.36 91.4176 10.6562 90.8769 11.1969L92.2911 12.6111ZM92.864 12.36H95.296V10.36H92.864V12.36Z" fill="#F0F0F0" mask="url(#path-1-outside-1_14_2)"/>
<path d="M26.336 14.88C26.8267 14.88 27.2533 15.0613 27.616 15.424C27.9787 15.7867 28.16 16.2133 28.16 16.704V19.68C28.16 22.88 28.0853 25.5253 27.936 27.616C27.808 29.6853 27.6053 31.3813 27.328 32.704C27.072 34.0267 26.6667 35.0187 26.112 35.68C25.5787 36.32 25.0027 36.7467 24.384 36.96C23.7653 37.1733 22.944 37.28 21.92 37.28C20.832 37.28 19.0827 37.1733 16.672 36.96C16.1813 36.9173 15.776 36.704 15.456 36.32C15.136 35.936 14.9973 35.4987 15.04 35.008L15.2 33.152C15.2427 32.6613 15.456 32.256 15.84 31.936C16.2453 31.616 16.6933 31.4773 17.184 31.52C18.4 31.6267 19.3387 31.68 20 31.68C20.448 31.68 20.7787 31.5093 20.992 31.168C21.2267 30.8053 21.408 29.9733 21.536 28.672C21.6853 27.3493 21.76 25.3653 21.76 22.72V20.608C21.76 20.416 21.6747 20.32 21.504 20.32H16.256C16.0853 20.32 15.9787 20.416 15.936 20.608C15.4453 24.4267 14.5813 27.584 13.344 30.08C12.1067 32.5547 10.3573 34.784 8.096 36.768C7.712 37.088 7.27467 37.2267 6.784 37.184C6.29333 37.1627 5.86667 36.96 5.504 36.576L4.096 35.104C3.75467 34.7413 3.60533 34.3147 3.648 33.824C3.712 33.3333 3.92533 32.928 4.288 32.608C5.93067 31.136 7.2 29.4933 8.096 27.68C8.992 25.8453 9.632 23.488 10.016 20.608C10.0587 20.416 9.984 20.32 9.792 20.32H5.024C4.53333 20.32 4.10667 20.1387 3.744 19.776C3.38133 19.4133 3.2 18.9867 3.2 18.496V16.704C3.2 16.2133 3.38133 15.7867 3.744 15.424C4.10667 15.0613 4.53333 14.88 5.024 14.88H10.208C10.4 14.88 10.496 14.7947 10.496 14.624C10.5387 13.6 10.56 12.7893 10.56 12.192C10.56 11.7013 10.7413 11.2853 11.104 10.944C11.4667 10.5813 11.8933 10.4 12.384 10.4H14.656C15.168 10.4 15.5947 10.5813 15.936 10.944C16.2987 11.3067 16.48 11.744 16.48 12.256C16.48 12.7893 16.4587 13.568 16.416 14.592C16.416 14.784 16.5013 14.88 16.672 14.88H26.336ZM55.712 12.896L57.024 14.464C57.3653 14.848 57.5147 15.296 57.472 15.808C57.4293 16.32 57.216 16.736 56.832 17.056C54.592 18.912 52.1493 20.5547 49.504 21.984C49.3333 22.0907 49.248 22.2293 49.248 22.4V35.936C49.248 36.4267 49.0667 36.8533 48.704 37.216C48.3413 37.5787 47.9147 37.76 47.424 37.76H44.512C44.0213 37.76 43.5947 37.5787 43.232 37.216C42.8693 36.8533 42.688 36.4267 42.688 35.936V25.408C42.688 25.344 42.656 25.2907 42.592 25.248C42.528 25.2053 42.464 25.1947 42.4 25.216C39.3493 26.368 36.3627 27.2 33.44 27.712C32.9493 27.7973 32.4907 27.6907 32.064 27.392C31.6587 27.0933 31.4133 26.6987 31.328 26.208L31.008 24.192C30.9227 23.7013 31.0187 23.264 31.296 22.88C31.5947 22.4747 31.9893 22.2187 32.48 22.112C36.2987 21.4293 40 20.2773 43.584 18.656C47.1893 17.0133 50.3787 15.04 53.152 12.736C53.536 12.416 53.9733 12.2667 54.464 12.288C54.976 12.3093 55.392 12.512 55.712 12.896ZM84.384 24.192C84.8533 24.3413 85.1947 24.6507 85.408 25.12C85.6427 25.568 85.6747 26.0373 85.504 26.528L84.736 28.832C84.5867 29.3013 84.288 29.6533 83.84 29.888C83.392 30.1013 82.9227 30.1227 82.432 29.952C78.144 28.4587 73.7813 27.136 69.344 25.984C69.28 25.9627 69.2267 25.984 69.184 26.048C69.1413 26.0907 69.12 26.144 69.12 26.208V36.096C69.12 36.5867 68.9387 37.0133 68.576 37.376C68.2133 37.7387 67.7867 37.92 67.296 37.92H64.544C64.0533 37.92 63.6267 37.7387 63.264 37.376C62.9013 37.0133 62.72 36.5867 62.72 36.096V12.864C62.72 12.3733 62.9013 11.9467 63.264 11.584C63.6267 11.2213 64.0533 11.04 64.544 11.04H67.296C67.7867 11.04 68.2133 11.2213 68.576 11.584C68.9387 11.9467 69.12 12.3733 69.12 12.864V19.392C69.12 19.584 69.2053 19.7013 69.376 19.744C74.688 21.0667 79.6907 22.5493 84.384 24.192ZM114.208 22.304C114.699 22.368 115.104 22.6027 115.424 23.008C115.744 23.392 115.872 23.8293 115.808 24.32C115.189 28.8427 113.739 32.1387 111.456 34.208C109.173 36.256 105.845 37.3333 101.472 37.44C100.981 37.4613 100.555 37.2907 100.192 36.928C99.8507 36.5653 99.68 36.128 99.68 35.616V13.184C99.68 12.6933 99.8613 12.2667 100.224 11.904C100.587 11.5413 101.013 11.36 101.504 11.36H104.096C104.587 11.36 105.013 11.5413 105.376 11.904C105.739 12.2667 105.92 12.6933 105.92 13.184V30.688C105.92 30.88 106.005 30.9333 106.176 30.848C107.264 30.336 108.096 29.5253 108.672 28.416C109.269 27.2853 109.717 25.6747 110.016 23.584C110.08 23.0933 110.304 22.6987 110.688 22.4C111.093 22.08 111.541 21.952 112.032 22.016L114.208 22.304ZM95.296 11.36C95.7867 11.36 96.2133 11.5413 96.576 11.904C96.9387 12.2667 97.12 12.6933 97.12 13.184V18.08C97.12 22.1547 96.9173 25.376 96.512 27.744C96.128 30.112 95.4773 32 94.56 33.408C93.6427 34.816 92.3093 36.032 90.56 37.056C90.112 37.312 89.6427 37.376 89.152 37.248C88.6613 37.12 88.2667 36.8427 87.968 36.416L86.592 34.304C86.3147 33.8987 86.2293 33.4613 86.336 32.992C86.464 32.5227 86.7413 32.16 87.168 31.904C88.0427 31.3493 88.7147 30.7947 89.184 30.24C89.6747 29.664 90.0693 28.832 90.368 27.744C90.6667 26.656 90.848 25.4187 90.912 24.032C90.9973 22.624 91.04 20.64 91.04 18.08V13.184C91.04 12.6933 91.2213 12.2667 91.584 11.904C91.9467 11.5413 92.3733 11.36 92.864 11.36H95.296Z" fill="#01063B"/>
<mask id="path-4-outside-2_14_2" maskUnits="userSpaceOnUse" x="117" y="11" width="80" height="29" fill="black">
<rect fill="white" x="117" y="11" width="80" height="29"/>
<path d="M131.184 38.36C129.648 38.36 128.112 38.18 126.576 37.82C125.064 37.436 123.672 36.764 122.4 35.804C121.152 34.844 120.144 33.512 119.376 31.808C118.608 30.104 118.224 27.92 118.224 25.256C118.224 22.592 118.608 20.408 119.376 18.704C120.144 17 121.152 15.668 122.4 14.708C123.672 13.748 125.064 13.088 126.576 12.728C128.112 12.344 129.648 12.152 131.184 12.152C132.72 12.152 134.244 12.344 135.756 12.728C137.292 13.112 138.684 13.784 139.932 14.744C141.204 15.704 142.224 17.036 142.992 18.74C143.76 20.444 144.144 22.616 144.144 25.256C144.144 27.896 143.76 30.068 142.992 31.772C142.224 33.476 141.204 34.808 139.932 35.768C138.684 36.728 137.292 37.4 135.756 37.784C134.244 38.168 132.72 38.36 131.184 38.36ZM131.184 31.16C132.744 31.16 133.92 30.692 134.712 29.756C135.504 28.796 135.9 27.296 135.9 25.256C135.9 23.24 135.504 21.752 134.712 20.792C133.92 19.832 132.744 19.352 131.184 19.352C128.064 19.352 126.504 21.32 126.504 25.256C126.504 27.272 126.888 28.76 127.656 29.72C128.448 30.68 129.624 31.16 131.184 31.16ZM145.731 38V18.308L145.011 14.708L145.731 12.548H152.967L160.239 21.62L161.967 24.608H162.327V12.548H170.643V14.708L170.283 18.308V38H163.119L154.083 25.688H153.723V27.848L154.083 38H145.731ZM173.164 38L172.444 35.84L173.164 32.24V12.512H191.704L193.504 13.592L191.128 19.712L187.888 19.352H181.156V22.232H190.048V28.172H185.08L181.156 27.812V31.16H191.128L195.412 35.696L193.288 38H173.164Z"/>
</mask>
<path d="M131.184 38.36C129.648 38.36 128.112 38.18 126.576 37.82C125.064 37.436 123.672 36.764 122.4 35.804C121.152 34.844 120.144 33.512 119.376 31.808C118.608 30.104 118.224 27.92 118.224 25.256C118.224 22.592 118.608 20.408 119.376 18.704C120.144 17 121.152 15.668 122.4 14.708C123.672 13.748 125.064 13.088 126.576 12.728C128.112 12.344 129.648 12.152 131.184 12.152C132.72 12.152 134.244 12.344 135.756 12.728C137.292 13.112 138.684 13.784 139.932 14.744C141.204 15.704 142.224 17.036 142.992 18.74C143.76 20.444 144.144 22.616 144.144 25.256C144.144 27.896 143.76 30.068 142.992 31.772C142.224 33.476 141.204 34.808 139.932 35.768C138.684 36.728 137.292 37.4 135.756 37.784C134.244 38.168 132.72 38.36 131.184 38.36ZM131.184 31.16C132.744 31.16 133.92 30.692 134.712 29.756C135.504 28.796 135.9 27.296 135.9 25.256C135.9 23.24 135.504 21.752 134.712 20.792C133.92 19.832 132.744 19.352 131.184 19.352C128.064 19.352 126.504 21.32 126.504 25.256C126.504 27.272 126.888 28.76 127.656 29.72C128.448 30.68 129.624 31.16 131.184 31.16ZM145.731 38V18.308L145.011 14.708L145.731 12.548H152.967L160.239 21.62L161.967 24.608H162.327V12.548H170.643V14.708L170.283 18.308V38H163.119L154.083 25.688H153.723V27.848L154.083 38H145.731ZM173.164 38L172.444 35.84L173.164 32.24V12.512H191.704L193.504 13.592L191.128 19.712L187.888 19.352H181.156V22.232H190.048V28.172H185.08L181.156 27.812V31.16H191.128L195.412 35.696L193.288 38H173.164Z" fill="#01063B"/>
<path d="M126.576 37.82L126.33 38.7892L126.339 38.7915L126.348 38.7936L126.576 37.82ZM122.4 35.804L121.79 36.5967L121.798 36.6022L122.4 35.804ZM119.376 31.808L118.464 32.2189L119.376 31.808ZM119.376 18.704L120.288 19.1149L119.376 18.704ZM122.4 14.708L121.798 13.9098L121.79 13.9154L122.4 14.708ZM126.576 12.728L126.808 13.7009L126.819 13.6981L126.576 12.728ZM135.756 12.728L135.51 13.6972L135.513 13.6981L135.756 12.728ZM139.932 14.744L139.322 15.5367L139.33 15.5422L139.932 14.744ZM142.992 18.74L143.904 18.3291V18.3291L142.992 18.74ZM142.992 31.772L143.904 32.1829L142.992 31.772ZM139.932 35.768L139.33 34.9698L139.322 34.9754L139.932 35.768ZM135.756 37.784L135.513 36.8139L135.51 36.8148L135.756 37.784ZM134.712 29.756L135.475 30.402L135.483 30.3924L134.712 29.756ZM134.712 20.792L133.941 21.4284L134.712 20.792ZM127.656 29.72L126.875 30.3447L126.88 30.3506L126.885 30.3564L127.656 29.72ZM131.184 37.36C129.727 37.36 128.267 37.1893 126.804 36.8464L126.348 38.7936C127.957 39.1707 129.569 39.36 131.184 39.36V37.36ZM126.822 36.8508C125.442 36.5002 124.171 35.8874 123.002 35.0058L121.798 36.6022C123.173 37.6406 124.686 38.3718 126.33 38.7892L126.822 36.8508ZM123.01 35.0114C121.915 34.169 121.001 32.979 120.288 31.3971L118.464 32.2189C119.287 34.045 120.389 35.519 121.79 36.5966L123.01 35.0114ZM120.288 31.3971C119.597 29.865 119.224 27.8342 119.224 25.256H117.224C117.224 28.0058 117.619 30.343 118.464 32.2189L120.288 31.3971ZM119.224 25.256C119.224 22.6778 119.597 20.647 120.288 19.1149L118.464 18.2931C117.619 20.169 117.224 22.5062 117.224 25.256H119.224ZM120.288 19.1149C121.001 17.533 121.915 16.343 123.01 15.5006L121.79 13.9154C120.389 14.993 119.287 16.467 118.464 18.2931L120.288 19.1149ZM123.002 15.5062C124.167 14.6272 125.433 14.028 126.808 13.7008L126.344 11.7552C124.695 12.148 123.177 12.8688 121.798 13.9098L123.002 15.5062ZM126.819 13.6981C128.278 13.3334 129.732 13.152 131.184 13.152V11.152C129.564 11.152 127.946 11.3546 126.333 11.7579L126.819 13.6981ZM131.184 13.152C132.636 13.152 134.077 13.3333 135.51 13.6972L136.002 11.7588C134.411 11.3547 132.804 11.152 131.184 11.152V13.152ZM135.513 13.6981C136.917 14.049 138.184 14.6609 139.322 15.5366L140.542 13.9514C139.184 12.9071 137.667 12.175 135.999 11.7579L135.513 13.6981ZM139.33 15.5422C140.446 16.3849 141.369 17.5734 142.08 19.1509L143.904 18.3291C143.079 16.4986 141.962 15.0231 140.534 13.9458L139.33 15.5422ZM142.08 19.1509C142.771 20.684 143.144 22.7033 143.144 25.256H145.144C145.144 22.5287 144.749 20.204 143.904 18.3291L142.08 19.1509ZM143.144 25.256C143.144 27.8087 142.771 29.828 142.08 31.3611L143.904 32.1829C144.749 30.308 145.144 27.9833 145.144 25.256H143.144ZM142.08 31.3611C141.369 32.9386 140.446 34.1271 139.33 34.9698L140.534 36.5662C141.962 35.4889 143.079 34.0134 143.904 32.1829L142.08 31.3611ZM139.322 34.9754C138.184 35.8511 136.917 36.463 135.513 36.8139L135.999 38.7541C137.667 38.337 139.184 37.6049 140.542 36.5606L139.322 34.9754ZM135.51 36.8148C134.077 37.1787 132.636 37.36 131.184 37.36V39.36C132.804 39.36 134.411 39.1573 136.002 38.7532L135.51 36.8148ZM131.184 32.16C132.952 32.16 134.444 31.621 135.475 30.4019L133.949 29.1101C133.396 29.763 132.536 30.16 131.184 30.16V32.16ZM135.483 30.3924C136.492 29.17 136.9 27.3906 136.9 25.256H134.9C134.9 27.2014 134.516 28.422 133.941 29.1196L135.483 30.3924ZM136.9 25.256C136.9 23.1419 136.491 21.3764 135.483 20.1556L133.941 21.4284C134.517 22.1276 134.9 23.3381 134.9 25.256H136.9ZM135.483 20.1556C134.455 18.9085 132.96 18.352 131.184 18.352V20.352C132.528 20.352 133.385 20.7555 133.941 21.4284L135.483 20.1556ZM131.184 18.352C129.4 18.352 127.905 18.9262 126.89 20.2068C125.91 21.4431 125.504 23.1828 125.504 25.256H127.504C127.504 23.3932 127.878 22.1809 128.458 21.4492C129.003 20.7618 129.848 20.352 131.184 20.352V18.352ZM125.504 25.256C125.504 27.3649 125.9 29.1252 126.875 30.3447L128.437 29.0953C127.876 28.3948 127.504 27.1791 127.504 25.256H125.504ZM126.885 30.3564C127.913 31.6035 129.408 32.16 131.184 32.16V30.16C129.84 30.16 128.983 29.7565 128.427 29.0836L126.885 30.3564ZM145.731 38H144.731V39H145.731V38ZM145.731 18.308H146.731V18.209L146.712 18.1119L145.731 18.308ZM145.011 14.708L144.062 14.3918L143.978 14.6437L144.031 14.9041L145.011 14.708ZM145.731 12.548V11.548H145.01L144.782 12.2318L145.731 12.548ZM152.967 12.548L153.747 11.9225L153.447 11.548H152.967V12.548ZM160.239 21.62L161.105 21.1194L161.067 21.0537L161.019 20.9945L160.239 21.62ZM161.967 24.608L161.101 25.1086L161.39 25.608H161.967V24.608ZM162.327 24.608V25.608H163.327V24.608H162.327ZM162.327 12.548V11.548H161.327V12.548H162.327ZM170.643 12.548H171.643V11.548H170.643V12.548ZM170.643 14.708L171.638 14.8075L171.643 14.7579V14.708H170.643ZM170.283 18.308L169.288 18.2085L169.283 18.2581V18.308H170.283ZM170.283 38V39H171.283V38H170.283ZM163.119 38L162.313 38.5917L162.613 39H163.119V38ZM154.083 25.688L154.889 25.0963L154.59 24.688H154.083V25.688ZM153.723 25.688V24.688H152.723V25.688H153.723ZM153.723 27.848H152.723V27.8657L152.724 27.8834L153.723 27.848ZM154.083 38V39H155.119L155.082 37.9646L154.083 38ZM146.731 38V18.308H144.731V38H146.731ZM146.712 18.1119L145.992 14.5119L144.031 14.9041L144.751 18.5041L146.712 18.1119ZM145.96 15.0242L146.68 12.8642L144.782 12.2318L144.062 14.3918L145.96 15.0242ZM145.731 13.548H152.967V11.548H145.731V13.548ZM152.187 13.1734L159.459 22.2454L161.019 20.9945L153.747 11.9225L152.187 13.1734ZM159.373 22.1206L161.101 25.1086L162.833 24.1074L161.105 21.1194L159.373 22.1206ZM161.967 25.608H162.327V23.608H161.967V25.608ZM163.327 24.608V12.548H161.327V24.608H163.327ZM162.327 13.548H170.643V11.548H162.327V13.548ZM169.643 12.548V14.708H171.643V12.548H169.643ZM169.648 14.6085L169.288 18.2085L171.278 18.4075L171.638 14.8075L169.648 14.6085ZM169.283 18.308V38H171.283V18.308H169.283ZM170.283 37H163.119V39H170.283V37ZM163.925 37.4083L154.889 25.0963L153.277 26.2797L162.313 38.5917L163.925 37.4083ZM154.083 24.688H153.723V26.688H154.083V24.688ZM152.723 25.688V27.848H154.723V25.688H152.723ZM152.724 27.8834L153.084 38.0354L155.082 37.9646L154.722 27.8126L152.724 27.8834ZM154.083 37H145.731V39H154.083V37ZM173.164 38L172.216 38.3162L172.443 39H173.164V38ZM172.444 35.84L171.464 35.6439L171.412 35.9043L171.496 36.1562L172.444 35.84ZM173.164 32.24L174.145 32.4361L174.164 32.339V32.24H173.164ZM173.164 12.512V11.512H172.164V12.512H173.164ZM191.704 12.512L192.219 11.6545L191.981 11.512H191.704V12.512ZM193.504 13.592L194.436 13.9539L194.741 13.1682L194.019 12.7345L193.504 13.592ZM191.128 19.712L191.018 20.7059L191.782 20.7908L192.06 20.0739L191.128 19.712ZM187.888 19.352L187.999 18.3581L187.944 18.352H187.888V19.352ZM181.156 19.352V18.352H180.156V19.352H181.156ZM181.156 22.232H180.156V23.232H181.156V22.232ZM190.048 22.232H191.048V21.232H190.048V22.232ZM190.048 28.172V29.172H191.048V28.172H190.048ZM185.08 28.172L184.989 29.1678L185.034 29.172H185.08V28.172ZM181.156 27.812L181.248 26.8162L180.156 26.7161V27.812H181.156ZM181.156 31.16H180.156V32.16H181.156V31.16ZM191.128 31.16L191.855 30.4734L191.559 30.16H191.128V31.16ZM195.412 35.696L196.147 36.3738L196.78 35.6877L196.139 35.0094L195.412 35.696ZM193.288 38V39H193.726L194.023 38.6778L193.288 38ZM174.113 37.6838L173.393 35.5238L171.496 36.1562L172.216 38.3162L174.113 37.6838ZM173.425 36.0361L174.145 32.4361L172.184 32.0439L171.464 35.6439L173.425 36.0361ZM174.164 32.24V12.512H172.164V32.24H174.164ZM173.164 13.512H191.704V11.512H173.164V13.512ZM191.19 13.3695L192.99 14.4495L194.019 12.7345L192.219 11.6545L191.19 13.3695ZM192.572 13.2301L190.196 19.3501L192.06 20.0739L194.436 13.9539L192.572 13.2301ZM191.239 18.7181L187.999 18.3581L187.778 20.3459L191.018 20.7059L191.239 18.7181ZM187.888 18.352H181.156V20.352H187.888V18.352ZM180.156 19.352V22.232H182.156V19.352H180.156ZM181.156 23.232H190.048V21.232H181.156V23.232ZM189.048 22.232V28.172H191.048V22.232H189.048ZM190.048 27.172H185.08V29.172H190.048V27.172ZM185.172 27.1762L181.248 26.8162L181.065 28.8078L184.989 29.1678L185.172 27.1762ZM180.156 27.812V31.16H182.156V27.812H180.156ZM181.156 32.16H191.128V30.16H181.156V32.16ZM190.401 31.8466L194.685 36.3826L196.139 35.0094L191.855 30.4734L190.401 31.8466ZM194.677 35.0182L192.553 37.3222L194.023 38.6778L196.147 36.3738L194.677 35.0182ZM193.288 37H173.164V39H193.288V37Z" fill="#F0F0F0" mask="url(#path-4-outside-2_14_2)"/>
<path d="M131.184 38.36C129.648 38.36 128.112 38.18 126.576 37.82C125.064 37.436 123.672 36.764 122.4 35.804C121.152 34.844 120.144 33.512 119.376 31.808C118.608 30.104 118.224 27.92 118.224 25.256C118.224 22.592 118.608 20.408 119.376 18.704C120.144 17 121.152 15.668 122.4 14.708C123.672 13.748 125.064 13.088 126.576 12.728C128.112 12.344 129.648 12.152 131.184 12.152C132.72 12.152 134.244 12.344 135.756 12.728C137.292 13.112 138.684 13.784 139.932 14.744C141.204 15.704 142.224 17.036 142.992 18.74C143.76 20.444 144.144 22.616 144.144 25.256C144.144 27.896 143.76 30.068 142.992 31.772C142.224 33.476 141.204 34.808 139.932 35.768C138.684 36.728 137.292 37.4 135.756 37.784C134.244 38.168 132.72 38.36 131.184 38.36ZM131.184 31.16C132.744 31.16 133.92 30.692 134.712 29.756C135.504 28.796 135.9 27.296 135.9 25.256C135.9 23.24 135.504 21.752 134.712 20.792C133.92 19.832 132.744 19.352 131.184 19.352C128.064 19.352 126.504 21.32 126.504 25.256C126.504 27.272 126.888 28.76 127.656 29.72C128.448 30.68 129.624 31.16 131.184 31.16ZM145.731 38V18.308L145.011 14.708L145.731 12.548H152.967L160.239 21.62L161.967 24.608H162.327V12.548H170.643V14.708L170.283 18.308V38H163.119L154.083 25.688H153.723V27.848L154.083 38H145.731ZM173.164 38L172.444 35.84L173.164 32.24V12.512H191.704L193.504 13.592L191.128 19.712L187.888 19.352H181.156V22.232H190.048V28.172H185.08L181.156 27.812V31.16H191.128L195.412 35.696L193.288 38H173.164Z" fill="#01063B"/>
</svg>
