<svg width="213" height="57" viewBox="0 0 213 57" fill="none" xmlns="http://www.w3.org/2000/svg">
<path fill-rule="evenodd" clip-rule="evenodd" d="M2 4C2 2.89543 2.89543 2 4 2H209C210.105 2 211 2.89543 211 4V40C211 41.1046 210.105 42 209 42H78.5616C77.2604 42 76.3057 43.2228 76.6213 44.4851L78.6567 52.6268C79.1108 54.4432 77.0435 55.8319 75.5337 54.7247L58.7098 42.3872C58.3668 42.1356 57.9525 42 57.5271 42H4C2.89543 42 2 41.1046 2 40V4Z" fill="#FFEA00"/>
<path d="M58.7098 42.3872L57.8228 43.5968L58.7098 42.3872ZM78.6567 52.6268L77.2015 52.9906L78.6567 52.6268ZM76.6213 44.4851L78.0765 44.1213L76.6213 44.4851ZM209 3.5H4V0.5H209V3.5ZM209.5 40V4H212.5V40H209.5ZM78.5616 40.5H209V43.5H78.5616V40.5ZM77.2015 52.9906L75.1661 44.8489L78.0765 44.1213L80.1119 52.263L77.2015 52.9906ZM59.5969 41.1776L76.4207 53.5151L74.6467 55.9343L57.8228 43.5968L59.5969 41.1776ZM4 40.5H57.5271V43.5H4V40.5ZM3.5 4V40H0.5V4H3.5ZM4 43.5C2.067 43.5 0.5 41.933 0.5 40H3.5C3.5 40.2761 3.72386 40.5 4 40.5V43.5ZM57.8228 43.5968C57.737 43.5339 57.6334 43.5 57.5271 43.5V40.5C58.2715 40.5 58.9966 40.7374 59.5969 41.1776L57.8228 43.5968ZM80.1119 52.263C80.9066 55.4416 77.2888 57.8719 74.6467 55.9343L76.4207 53.5151C76.7982 53.7919 77.315 53.4447 77.2015 52.9906L80.1119 52.263ZM78.5616 43.5C78.2363 43.5 77.9976 43.8057 78.0765 44.1213L75.1661 44.8489C74.6138 42.6399 76.2846 40.5 78.5616 40.5V43.5ZM212.5 40C212.5 41.933 210.933 43.5 209 43.5V40.5C209.276 40.5 209.5 40.2761 209.5 40H212.5ZM4 3.5C3.72386 3.5 3.5 3.72386 3.5 4H0.5C0.5 2.067 2.06702 0.5 4 0.5V3.5ZM209 0.5C210.933 0.5 212.5 2.067 212.5 4H209.5C209.5 3.72386 209.276 3.5 209 3.5V0.5Z" fill="black"/>
<path d="M24.4863 14.744C24.4383 14.984 24.3843 15.254 24.3243 15.554C24.2643 15.842 24.2043 16.106 24.1443 16.346C24.0843 16.634 24.0183 16.94 23.9463 17.264C23.8743 17.576 23.8083 17.888 23.7483 18.2C23.6883 18.5 23.6283 18.794 23.5683 19.082C23.4483 19.598 23.2923 20.204 23.1003 20.9C22.9203 21.596 22.7043 22.346 22.4523 23.15C22.2123 23.942 21.9423 24.746 21.6423 25.562C21.3543 26.366 21.0363 27.146 20.6883 27.902C20.3523 28.658 20.0043 29.33 19.6443 29.918L17.0343 28.874C17.4663 28.298 17.8623 27.662 18.2223 26.966C18.5943 26.258 18.9303 25.532 19.2303 24.788C19.5303 24.044 19.7943 23.312 20.0223 22.592C20.2623 21.86 20.4663 21.182 20.6343 20.558C20.8023 19.934 20.9343 19.394 21.0303 18.938C21.1983 18.11 21.3303 17.318 21.4263 16.562C21.5223 15.806 21.5583 15.092 21.5343 14.42L24.4863 14.744ZM30.6963 16.346C30.9723 16.754 31.2663 17.252 31.5783 17.84C31.8903 18.428 32.1903 19.046 32.4783 19.694C32.7663 20.342 33.0303 20.972 33.2703 21.584C33.5103 22.184 33.6963 22.7 33.8283 23.132L31.2903 24.302C31.1823 23.786 31.0263 23.216 30.8223 22.592C30.6183 21.956 30.3843 21.314 30.1203 20.666C29.8563 20.018 29.5683 19.406 29.2563 18.83C28.9443 18.254 28.6263 17.762 28.3023 17.354L30.6963 16.346ZM16.9623 18.362C17.2983 18.386 17.6283 18.398 17.9523 18.398C18.2883 18.386 18.6303 18.374 18.9783 18.362C19.2783 18.35 19.6383 18.332 20.0583 18.308C20.4783 18.272 20.9223 18.236 21.3903 18.2C21.8703 18.164 22.3443 18.128 22.8123 18.092C23.2923 18.044 23.7363 18.008 24.1443 17.984C24.5523 17.948 24.8943 17.93 25.1703 17.93C25.8303 17.93 26.4063 18.044 26.8983 18.272C27.4023 18.5 27.7923 18.878 28.0683 19.406C28.3563 19.922 28.5003 20.618 28.5003 21.494C28.5003 22.19 28.4703 22.958 28.4103 23.798C28.3503 24.626 28.2483 25.424 28.1043 26.192C27.9603 26.948 27.7563 27.59 27.4923 28.118C27.1923 28.754 26.7843 29.192 26.2683 29.432C25.7643 29.684 25.1583 29.81 24.4503 29.81C24.1023 29.81 23.7303 29.786 23.3343 29.738C22.9383 29.69 22.5843 29.63 22.2723 29.558L21.8403 26.948C22.0803 27.008 22.3383 27.068 22.6143 27.128C22.8903 27.188 23.1603 27.236 23.4243 27.272C23.6883 27.308 23.8923 27.326 24.0363 27.326C24.3363 27.326 24.5943 27.272 24.8103 27.164C25.0263 27.056 25.2003 26.864 25.3323 26.588C25.4883 26.276 25.6143 25.85 25.7103 25.31C25.8183 24.77 25.8963 24.188 25.9443 23.564C26.0043 22.928 26.0343 22.328 26.0343 21.764C26.0343 21.296 25.9683 20.954 25.8363 20.738C25.7163 20.522 25.5243 20.378 25.2603 20.306C25.0083 20.234 24.6963 20.198 24.3243 20.198C24.0603 20.198 23.7003 20.222 23.2443 20.27C22.7883 20.306 22.3023 20.354 21.7863 20.414C21.2703 20.462 20.7903 20.516 20.3463 20.576C19.9023 20.636 19.5543 20.684 19.3023 20.72C19.0263 20.768 18.6783 20.822 18.2583 20.882C17.8383 20.93 17.4843 20.984 17.1963 21.044L16.9623 18.362ZM45.5103 15.626C45.4143 15.746 45.3183 15.884 45.2223 16.04C45.1263 16.184 45.0303 16.328 44.9343 16.472C44.7063 16.784 44.4663 17.15 44.2143 17.57C43.9623 17.978 43.7043 18.404 43.4403 18.848C43.1763 19.292 42.9183 19.736 42.6663 20.18C42.4263 20.612 42.1983 21.026 41.9823 21.422C42.2823 21.278 42.5943 21.176 42.9183 21.116C43.2423 21.056 43.5603 21.026 43.8723 21.026C44.5683 21.026 45.1083 21.236 45.4923 21.656C45.8763 22.076 46.0923 22.67 46.1403 23.438C46.1523 23.678 46.1583 23.978 46.1583 24.338C46.1583 24.698 46.1583 25.064 46.1583 25.436C46.1703 25.796 46.1943 26.096 46.2303 26.336C46.2663 26.66 46.3863 26.894 46.5903 27.038C46.7943 27.17 47.0283 27.236 47.2923 27.236C47.6523 27.236 47.9823 27.128 48.2823 26.912C48.5823 26.696 48.8463 26.396 49.0743 26.012C49.3143 25.616 49.5243 25.16 49.7043 24.644C49.8843 24.128 50.0403 23.582 50.1723 23.006L52.3323 24.77C52.0203 25.814 51.6183 26.732 51.1263 27.524C50.6343 28.304 50.0343 28.904 49.3263 29.324C48.6303 29.756 47.8143 29.972 46.8783 29.972C46.2063 29.972 45.6423 29.852 45.1863 29.612C44.7303 29.372 44.3883 29.06 44.1603 28.676C43.9323 28.292 43.8003 27.872 43.7643 27.416C43.7403 27.092 43.7223 26.732 43.7103 26.336C43.6983 25.94 43.6863 25.562 43.6743 25.202C43.6743 24.83 43.6623 24.536 43.6383 24.32C43.6143 24.02 43.5183 23.792 43.3503 23.636C43.1943 23.468 42.9663 23.384 42.6663 23.384C42.2823 23.384 41.9223 23.504 41.5863 23.744C41.2503 23.972 40.9443 24.29 40.6683 24.698C40.4043 25.106 40.1703 25.556 39.9663 26.048C39.8463 26.312 39.7203 26.618 39.5883 26.966C39.4683 27.314 39.3483 27.68 39.2283 28.064C39.1203 28.448 39.0123 28.808 38.9043 29.144C38.7963 29.492 38.7123 29.792 38.6523 30.044L35.8263 29.09C36.0543 28.49 36.3303 27.806 36.6543 27.038C36.9903 26.258 37.3503 25.442 37.7343 24.59C38.1183 23.738 38.5083 22.898 38.9043 22.07C39.3123 21.23 39.6963 20.438 40.0563 19.694C40.4283 18.938 40.7583 18.278 41.0463 17.714C41.3463 17.15 41.5743 16.724 41.7303 16.436C41.8503 16.196 41.9943 15.914 42.1623 15.59C42.3303 15.266 42.5043 14.9 42.6843 14.492L45.5103 15.626ZM62.5383 14.564C62.4783 14.828 62.4063 15.14 62.3223 15.5C62.2503 15.86 62.1903 16.142 62.1423 16.346C62.0583 16.754 61.9563 17.258 61.8363 17.858C61.7163 18.446 61.5783 19.07 61.4223 19.73C61.2663 20.39 61.1103 21.026 60.9543 21.638C60.7983 22.262 60.6063 22.946 60.3783 23.69C60.1503 24.434 59.9043 25.184 59.6403 25.94C59.3883 26.696 59.1243 27.428 58.8483 28.136C58.5843 28.832 58.3323 29.456 58.0923 30.008L55.3203 29.072C55.5843 28.616 55.8663 28.058 56.1663 27.398C56.4663 26.738 56.7543 26.03 57.0303 25.274C57.3183 24.518 57.5883 23.768 57.8403 23.024C58.0923 22.268 58.3023 21.578 58.4703 20.954C58.5903 20.522 58.6983 20.09 58.7943 19.658C58.9023 19.214 58.9983 18.788 59.0823 18.38C59.1663 17.972 59.2383 17.588 59.2983 17.228C59.3583 16.856 59.4063 16.532 59.4423 16.256C59.4903 15.896 59.5143 15.542 59.5143 15.194C59.5263 14.846 59.5203 14.558 59.4963 14.33L62.5383 14.564ZM57.7863 17.174C58.5423 17.174 59.3163 17.138 60.1083 17.066C60.9003 16.994 61.6983 16.892 62.5023 16.76C63.3183 16.616 64.1223 16.454 64.9143 16.274V18.758C64.1703 18.938 63.3723 19.088 62.5203 19.208C61.6803 19.328 60.8463 19.424 60.0183 19.496C59.2023 19.556 58.4523 19.586 57.7683 19.586C57.3243 19.586 56.9223 19.58 56.5623 19.568C56.2023 19.544 55.8663 19.526 55.5543 19.514L55.4823 17.03C55.9623 17.078 56.3703 17.114 56.7063 17.138C57.0543 17.162 57.4143 17.174 57.7863 17.174ZM63.4203 20.018C63.9483 19.958 64.5183 19.91 65.1303 19.874C65.7543 19.838 66.3603 19.82 66.9483 19.82C67.4523 19.82 67.9683 19.832 68.4963 19.856C69.0363 19.88 69.5763 19.922 70.1163 19.982L70.0623 22.376C69.6183 22.316 69.1263 22.262 68.5863 22.214C68.0583 22.166 67.5123 22.142 66.9483 22.142C66.3123 22.142 65.7063 22.16 65.1303 22.196C64.5663 22.22 63.9963 22.268 63.4203 22.34V20.018ZM64.5723 24.572C64.5123 24.812 64.4583 25.07 64.4103 25.346C64.3623 25.622 64.3383 25.85 64.3383 26.03C64.3383 26.234 64.3743 26.414 64.4463 26.57C64.5303 26.726 64.6563 26.864 64.8243 26.984C64.9923 27.104 65.2263 27.194 65.5263 27.254C65.8263 27.314 66.1983 27.344 66.6423 27.344C67.2423 27.344 67.8543 27.314 68.4783 27.254C69.1023 27.182 69.7503 27.086 70.4223 26.966L70.3323 29.504C69.8163 29.564 69.2523 29.618 68.6403 29.666C68.0283 29.726 67.3563 29.756 66.6243 29.756C65.0763 29.756 63.8943 29.498 63.0783 28.982C62.2743 28.466 61.8723 27.752 61.8723 26.84C61.8723 26.408 61.9083 25.97 61.9803 25.526C62.0523 25.082 62.1243 24.692 62.1963 24.356L64.5723 24.572ZM83.3103 15.626C83.2143 15.746 83.1183 15.884 83.0223 16.04C82.9263 16.184 82.8303 16.328 82.7343 16.472C82.5063 16.784 82.2663 17.15 82.0143 17.57C81.7623 17.978 81.5043 18.404 81.2403 18.848C80.9763 19.292 80.7183 19.736 80.4663 20.18C80.2263 20.612 79.9983 21.026 79.7823 21.422C80.0823 21.278 80.3943 21.176 80.7183 21.116C81.0423 21.056 81.3603 21.026 81.6723 21.026C82.3683 21.026 82.9083 21.236 83.2923 21.656C83.6763 22.076 83.8923 22.67 83.9403 23.438C83.9523 23.678 83.9583 23.978 83.9583 24.338C83.9583 24.698 83.9583 25.064 83.9583 25.436C83.9703 25.796 83.9943 26.096 84.0303 26.336C84.0663 26.66 84.1863 26.894 84.3903 27.038C84.5943 27.17 84.8283 27.236 85.0923 27.236C85.4523 27.236 85.7823 27.128 86.0823 26.912C86.3823 26.696 86.6463 26.396 86.8743 26.012C87.1143 25.616 87.3243 25.16 87.5043 24.644C87.6843 24.128 87.8403 23.582 87.9723 23.006L90.1323 24.77C89.8203 25.814 89.4183 26.732 88.9263 27.524C88.4343 28.304 87.8343 28.904 87.1263 29.324C86.4303 29.756 85.6143 29.972 84.6783 29.972C84.0063 29.972 83.4423 29.852 82.9863 29.612C82.5303 29.372 82.1883 29.06 81.9603 28.676C81.7323 28.292 81.6003 27.872 81.5643 27.416C81.5403 27.092 81.5223 26.732 81.5103 26.336C81.4983 25.94 81.4863 25.562 81.4743 25.202C81.4743 24.83 81.4623 24.536 81.4383 24.32C81.4143 24.02 81.3183 23.792 81.1503 23.636C80.9943 23.468 80.7663 23.384 80.4663 23.384C80.0823 23.384 79.7223 23.504 79.3863 23.744C79.0503 23.972 78.7443 24.29 78.4683 24.698C78.2043 25.106 77.9703 25.556 77.7663 26.048C77.6463 26.312 77.5203 26.618 77.3883 26.966C77.2683 27.314 77.1483 27.68 77.0283 28.064C76.9203 28.448 76.8123 28.808 76.7043 29.144C76.5963 29.492 76.5123 29.792 76.4523 30.044L73.6263 29.09C73.8543 28.49 74.1303 27.806 74.4543 27.038C74.7903 26.258 75.1503 25.442 75.5343 24.59C75.9183 23.738 76.3083 22.898 76.7043 22.07C77.1123 21.23 77.4963 20.438 77.8563 19.694C78.2283 18.938 78.5583 18.278 78.8463 17.714C79.1463 17.15 79.3743 16.724 79.5303 16.436C79.6503 16.196 79.7943 15.914 79.9623 15.59C80.1303 15.266 80.3043 14.9 80.4843 14.492L83.3103 15.626ZM93.1023 29V26.624H95.9643V18.614H93.5163V16.796C94.2123 16.676 94.8063 16.526 95.2983 16.346C95.8023 16.154 96.2763 15.914 96.7203 15.626H98.8803V26.624H101.346V29H93.1023ZM106.884 20.216H116.46V22.538H106.884V20.216ZM115.686 20.216H118.188C118.188 20.216 118.182 20.282 118.17 20.414C118.17 20.534 118.17 20.678 118.17 20.846C118.17 21.002 118.164 21.128 118.152 21.224C118.116 22.58 118.068 23.744 118.008 24.716C117.948 25.688 117.882 26.504 117.81 27.164C117.738 27.812 117.648 28.334 117.54 28.73C117.444 29.114 117.312 29.396 117.144 29.576C116.904 29.9 116.646 30.122 116.37 30.242C116.106 30.374 115.794 30.47 115.434 30.53C115.122 30.566 114.72 30.59 114.228 30.602C113.748 30.614 113.25 30.608 112.734 30.584C112.722 30.236 112.638 29.834 112.482 29.378C112.338 28.922 112.158 28.52 111.942 28.172C112.422 28.22 112.866 28.25 113.274 28.262C113.682 28.274 114 28.28 114.228 28.28C114.384 28.28 114.516 28.262 114.624 28.226C114.744 28.19 114.852 28.118 114.948 28.01C115.092 27.866 115.206 27.53 115.29 27.002C115.374 26.462 115.446 25.676 115.506 24.644C115.578 23.6 115.638 22.268 115.686 20.648V20.216ZM108.792 13.862L111.384 14.618C110.928 15.662 110.388 16.676 109.764 17.66C109.152 18.644 108.48 19.55 107.748 20.378C107.028 21.206 106.29 21.926 105.534 22.538C105.39 22.358 105.192 22.148 104.94 21.908C104.688 21.656 104.43 21.41 104.166 21.17C103.902 20.93 103.668 20.738 103.464 20.594C104.22 20.102 104.934 19.508 105.606 18.812C106.278 18.104 106.884 17.33 107.424 16.49C107.976 15.638 108.432 14.762 108.792 13.862ZM115.812 13.826C116.088 14.378 116.424 14.954 116.82 15.554C117.228 16.142 117.672 16.718 118.152 17.282C118.644 17.846 119.142 18.38 119.646 18.884C120.162 19.388 120.666 19.832 121.158 20.216C120.954 20.384 120.72 20.6 120.456 20.864C120.192 21.116 119.94 21.374 119.7 21.638C119.472 21.902 119.28 22.154 119.124 22.394C118.62 21.902 118.11 21.362 117.594 20.774C117.078 20.186 116.568 19.562 116.064 18.902C115.572 18.242 115.104 17.558 114.66 16.85C114.216 16.142 113.814 15.446 113.454 14.762L115.812 13.826ZM109.926 20.9H112.536C112.464 21.908 112.332 22.898 112.14 23.87C111.96 24.83 111.648 25.742 111.204 26.606C110.76 27.458 110.124 28.244 109.296 28.964C108.48 29.672 107.388 30.284 106.02 30.8C105.912 30.572 105.774 30.32 105.606 30.044C105.438 29.768 105.252 29.498 105.048 29.234C104.844 28.982 104.646 28.766 104.454 28.586C105.666 28.19 106.626 27.716 107.334 27.164C108.042 26.6 108.57 25.988 108.918 25.328C109.266 24.656 109.506 23.948 109.638 23.204C109.77 22.448 109.866 21.68 109.926 20.9ZM123.444 16.526C123.792 16.514 124.134 16.502 124.47 16.49C124.818 16.466 125.076 16.448 125.244 16.436C125.64 16.4 126.108 16.358 126.648 16.31C127.2 16.262 127.806 16.208 128.466 16.148C129.138 16.088 129.852 16.028 130.608 15.968C131.364 15.908 132.156 15.842 132.984 15.77C133.596 15.722 134.214 15.68 134.838 15.644C135.474 15.596 136.08 15.554 136.656 15.518C137.232 15.482 137.73 15.458 138.15 15.446L138.168 18.002C137.856 18.002 137.49 18.008 137.07 18.02C136.65 18.032 136.23 18.056 135.81 18.092C135.402 18.116 135.03 18.164 134.694 18.236C134.19 18.356 133.71 18.578 133.254 18.902C132.81 19.226 132.414 19.61 132.066 20.054C131.73 20.498 131.466 20.984 131.274 21.512C131.082 22.028 130.986 22.556 130.986 23.096C130.986 23.66 131.082 24.158 131.274 24.59C131.478 25.01 131.754 25.376 132.102 25.688C132.462 25.988 132.882 26.24 133.362 26.444C133.842 26.648 134.364 26.804 134.928 26.912C135.492 27.02 136.08 27.092 136.692 27.128L135.756 29.864C134.976 29.816 134.22 29.69 133.488 29.486C132.768 29.282 132.096 29.012 131.472 28.676C130.86 28.328 130.32 27.908 129.852 27.416C129.384 26.924 129.018 26.366 128.754 25.742C128.502 25.106 128.376 24.398 128.376 23.618C128.376 22.778 128.502 22.004 128.754 21.296C129.018 20.588 129.342 19.976 129.726 19.46C130.11 18.932 130.482 18.518 130.842 18.218C130.518 18.254 130.134 18.302 129.69 18.362C129.246 18.41 128.76 18.464 128.232 18.524C127.716 18.584 127.188 18.65 126.648 18.722C126.12 18.794 125.598 18.878 125.082 18.974C124.578 19.058 124.116 19.148 123.696 19.244L123.444 16.526ZM135.612 19.64C135.756 19.856 135.918 20.114 136.098 20.414C136.278 20.702 136.446 20.99 136.602 21.278C136.77 21.566 136.908 21.83 137.016 22.07L135.54 22.718C135.312 22.214 135.096 21.776 134.892 21.404C134.688 21.032 134.442 20.648 134.154 20.252L135.612 19.64ZM137.628 18.794C137.784 19.01 137.952 19.262 138.132 19.55C138.324 19.826 138.504 20.108 138.672 20.396C138.852 20.684 139.008 20.942 139.14 21.17L137.664 21.872C137.412 21.368 137.178 20.942 136.962 20.594C136.746 20.234 136.494 19.85 136.206 19.442L137.628 18.794ZM141.912 28.28H158.382V30.368H141.912V28.28ZM146.034 23.834H154.188V25.472H146.034V23.834ZM146.034 26.048H154.188V27.668H146.034V26.048ZM144.9 21.35H155.43V29.432H152.964V23.276H147.24V29.504H144.9V21.35ZM142.056 15.59H158.238V17.642H142.056V15.59ZM148.878 13.664H151.254V20.9H148.878V13.664ZM147.816 16.256L149.778 17.012C149.394 17.612 148.956 18.188 148.464 18.74C147.972 19.292 147.432 19.808 146.844 20.288C146.256 20.756 145.638 21.182 144.99 21.566C144.342 21.938 143.676 22.256 142.992 22.52C142.824 22.244 142.596 21.926 142.308 21.566C142.02 21.194 141.75 20.9 141.498 20.684C142.146 20.468 142.782 20.21 143.406 19.91C144.03 19.598 144.618 19.25 145.17 18.866C145.722 18.47 146.22 18.056 146.664 17.624C147.12 17.192 147.504 16.736 147.816 16.256ZM152.19 16.274C152.502 16.742 152.892 17.192 153.36 17.624C153.84 18.044 154.362 18.44 154.926 18.812C155.49 19.184 156.09 19.52 156.726 19.82C157.374 20.108 158.034 20.348 158.706 20.54C158.55 20.684 158.37 20.876 158.166 21.116C157.974 21.344 157.788 21.578 157.608 21.818C157.44 22.058 157.296 22.274 157.176 22.466C156.48 22.202 155.802 21.884 155.142 21.512C154.482 21.14 153.858 20.72 153.27 20.252C152.682 19.784 152.136 19.28 151.632 18.74C151.128 18.188 150.684 17.612 150.3 17.012L152.19 16.274ZM164.124 19.082H173.916V21.35H164.124V19.082ZM169.038 23.402H175.122V25.634H169.038V23.402ZM167.778 20.414H170.28V29L167.778 28.694V20.414ZM163.476 22.196L165.978 22.448C165.738 24.296 165.33 25.928 164.754 27.344C164.178 28.748 163.374 29.894 162.342 30.782C162.21 30.638 162.024 30.458 161.784 30.242C161.544 30.038 161.292 29.834 161.028 29.63C160.776 29.426 160.56 29.264 160.38 29.144C161.34 28.436 162.06 27.482 162.54 26.282C163.02 25.082 163.332 23.72 163.476 22.196ZM165.474 24.428C165.75 25.232 166.104 25.88 166.536 26.372C166.968 26.852 167.466 27.218 168.03 27.47C168.606 27.722 169.236 27.896 169.92 27.992C170.604 28.076 171.33 28.118 172.098 28.118C172.302 28.118 172.572 28.118 172.908 28.118C173.256 28.118 173.634 28.118 174.042 28.118C174.45 28.118 174.864 28.118 175.284 28.118C175.704 28.106 176.1 28.1 176.472 28.1C176.844 28.088 177.156 28.076 177.408 28.064C177.3 28.256 177.186 28.496 177.066 28.784C176.958 29.072 176.856 29.366 176.76 29.666C176.676 29.978 176.616 30.254 176.58 30.494H175.644H171.954C170.934 30.494 169.986 30.422 169.11 30.278C168.246 30.134 167.466 29.87 166.77 29.486C166.074 29.114 165.45 28.574 164.898 27.866C164.358 27.146 163.896 26.216 163.512 25.076L165.474 24.428ZM167.742 13.682H170.298V17.084H167.742V13.682ZM161.244 15.428H176.85V20.126H174.384V17.696H163.602V20.126H161.244V15.428ZM186.912 24.284L186.408 18.362L186.318 15.536H189.558L189.468 18.362L188.964 24.284H186.912ZM187.938 29.198C187.434 29.198 187.02 29.036 186.696 28.712C186.384 28.388 186.228 27.974 186.228 27.47C186.228 26.978 186.39 26.576 186.714 26.264C187.038 25.94 187.446 25.778 187.938 25.778C188.43 25.778 188.838 25.94 189.162 26.264C189.486 26.576 189.648 26.978 189.648 27.47C189.648 27.974 189.486 28.388 189.162 28.712C188.838 29.036 188.43 29.198 187.938 29.198Z" fill="black"/>
</svg>
