<svg width="693" height="461" viewBox="0 0 693 461" fill="none" xmlns="http://www.w3.org/2000/svg">
<path d="M404.81 106.375V93.1851H530.055V106.375H404.81Z" stroke="white" stroke-opacity="0.4" stroke-width="3"/>
<path d="M404.81 140.273V127.083H530.055V140.273H404.81Z" stroke="white" stroke-opacity="0.4" stroke-width="3"/>
<path d="M404.81 174.171V160.981H530.055V174.171H404.81Z" stroke="white" stroke-opacity="0.4" stroke-width="3"/>
<path d="M404.81 208.071V194.881H530.055V208.071H404.81Z" stroke="white" stroke-opacity="0.4" stroke-width="3"/>
<path d="M405.437 241.97V228.78H530.682V241.97H405.437Z" stroke="white" stroke-opacity="0.4" stroke-width="3"/>
<path d="M57.2468 124.637V101.669H91.2556V124.637H57.2468Z" stroke="white" stroke-opacity="0.4" stroke-width="3"/>
<path d="M110.022 124.637V101.669H144.031V124.637H110.022Z" stroke="white" stroke-opacity="0.4" stroke-width="3"/>
<path d="M162.797 124.637V101.669H196.806V124.637H162.797Z" stroke="white" stroke-opacity="0.4" stroke-width="3"/>
<path d="M57.2468 167.11V144.143H91.2556V167.11H57.2468Z" stroke="white" stroke-opacity="0.4" stroke-width="3"/>
<path d="M110.022 167.11V144.143H144.031V167.11H110.022Z" stroke="white" stroke-opacity="0.4" stroke-width="3"/>
<path d="M162.797 167.11V144.143H196.806V167.11H162.797Z" stroke="white" stroke-opacity="0.4" stroke-width="3"/>
<path d="M57.2468 209.585V186.618H91.2556V209.585H57.2468Z" stroke="white" stroke-opacity="0.4" stroke-width="3"/>
<path d="M110.022 209.585V186.618H144.031V209.585H110.022Z" stroke="white" stroke-opacity="0.4" stroke-width="3"/>
<path d="M162.797 209.585V186.618H196.806V209.585H162.797Z" stroke="white" stroke-opacity="0.4" stroke-width="3"/>
<path d="M57.2468 252.057V229.09H91.2556V252.057H57.2468Z" stroke="white" stroke-opacity="0.4" stroke-width="3"/>
<path d="M110.022 252.057V229.09H144.031V252.057H110.022Z" stroke="white" stroke-opacity="0.4" stroke-width="3"/>
<path d="M162.797 252.057V229.09H196.806V252.057H162.797Z" stroke="white" stroke-opacity="0.4" stroke-width="3"/>
<path d="M57.2468 294.532V271.565H91.2556V294.532H57.2468Z" stroke="white" stroke-opacity="0.4" stroke-width="3"/>
<path d="M110.022 294.532V271.565H144.031V294.532H110.022Z" stroke="white" stroke-opacity="0.4" stroke-width="3"/>
<path d="M162.797 294.532V271.565H196.806V294.532H162.797Z" stroke="white" stroke-opacity="0.4" stroke-width="3"/>
<path d="M162.797 337.005V314.038H196.806V337.005H162.797Z" stroke="white" stroke-opacity="0.4" stroke-width="3"/>
<path d="M110.022 373.606V350.639H144.031V373.606H110.022Z" stroke="white" stroke-opacity="0.4" stroke-width="3"/>
<path d="M162.797 373.606V350.639H196.806V373.606H162.797Z" stroke="white" stroke-opacity="0.4" stroke-width="3"/>
<path d="M233.86 121.489V93.6016H245.624V121.489H233.86Z" stroke="white" stroke-opacity="0.4" stroke-width="3"/>
<path d="M255.207 121.489V93.6016H266.97V121.489H255.207Z" stroke="white" stroke-opacity="0.4" stroke-width="3"/>
<path d="M276.552 121.489V93.6016H288.316V121.489H276.552Z" stroke="white" stroke-opacity="0.4" stroke-width="3"/>
<path d="M233.86 164.535V136.647H245.624V164.535H233.86Z" stroke="white" stroke-opacity="0.4" stroke-width="3"/>
<path d="M254.879 164.535V136.647H266.643V164.535H254.879Z" stroke="white" stroke-opacity="0.4" stroke-width="3"/>
<path d="M275.898 164.535V136.647H287.662V164.535H275.898Z" stroke="white" stroke-opacity="0.4" stroke-width="3"/>
<path d="M296.917 164.535V136.647H308.681V164.535H296.917Z" stroke="white" stroke-opacity="0.4" stroke-width="3"/>
<path d="M317.935 164.535V136.647H329.699V164.535H317.935Z" stroke="white" stroke-opacity="0.4" stroke-width="3"/>
<path d="M338.953 164.535V136.647H350.717V164.535H338.953Z" stroke="white" stroke-opacity="0.4" stroke-width="3"/>
<path d="M233.86 207.449V179.562H245.624V207.449H233.86Z" stroke="white" stroke-opacity="0.4" stroke-width="3"/>
<path d="M254.879 207.449V179.562H266.643V207.449H254.879Z" stroke="white" stroke-opacity="0.4" stroke-width="3"/>
<path d="M275.898 207.449V179.562H287.662V207.449H275.898Z" stroke="white" stroke-opacity="0.4" stroke-width="3"/>
<path d="M296.917 207.449V179.562H308.681V207.449H296.917Z" stroke="white" stroke-opacity="0.4" stroke-width="3"/>
<path d="M317.935 207.449V179.562H329.699V207.449H317.935Z" stroke="white" stroke-opacity="0.4" stroke-width="3"/>
<path d="M338.953 207.449V179.562H350.717V207.449H338.953Z" stroke="white" stroke-opacity="0.4" stroke-width="3"/>
<path d="M233.86 250.364V222.477H245.624V250.364H233.86Z" stroke="white" stroke-opacity="0.4" stroke-width="3"/>
<path d="M254.879 250.364V222.477H266.643V250.364H254.879Z" stroke="white" stroke-opacity="0.4" stroke-width="3"/>
<path d="M275.898 250.364V222.477H287.662V250.364H275.898Z" stroke="white" stroke-opacity="0.4" stroke-width="3"/>
<path d="M296.917 250.364V222.477H308.681V250.364H296.917Z" stroke="white" stroke-opacity="0.4" stroke-width="3"/>
<path d="M317.935 250.364V222.477H329.699V250.364H317.935Z" stroke="white" stroke-opacity="0.4" stroke-width="3"/>
<path d="M338.953 250.364V222.477H350.717V250.364H338.953Z" stroke="white" stroke-opacity="0.4" stroke-width="3"/>
<path d="M233.86 293.278V265.39H245.624V293.278H233.86Z" stroke="white" stroke-opacity="0.4" stroke-width="3"/>
<path d="M254.879 293.278V265.39H266.643V293.278H254.879Z" stroke="white" stroke-opacity="0.4" stroke-width="3"/>
<path d="M275.898 293.278V265.39H287.662V293.278H275.898Z" stroke="white" stroke-opacity="0.4" stroke-width="3"/>
<path d="M296.917 293.278V265.39H308.681V293.278H296.917Z" stroke="white" stroke-opacity="0.4" stroke-width="3"/>
<path d="M233.86 336.192V308.304H245.624V336.192H233.86Z" stroke="white" stroke-opacity="0.4" stroke-width="3"/>
<path d="M254.879 336.192V308.304H266.643V336.192H254.879Z" stroke="white" stroke-opacity="0.4" stroke-width="3"/>
<path d="M275.898 336.192V308.304H287.662V336.192H275.898Z" stroke="white" stroke-opacity="0.4" stroke-width="3"/>
<path d="M296.917 336.192V308.304H308.681V336.192H296.917Z" stroke="white" stroke-opacity="0.4" stroke-width="3"/>
<path d="M233.86 379.106V351.218H245.624V379.106H233.86Z" stroke="white" stroke-opacity="0.4" stroke-width="3"/>
<path d="M254.879 379.106V351.218H266.643V379.106H254.879Z" stroke="white" stroke-opacity="0.4" stroke-width="3"/>
<path d="M275.898 379.106V351.218H287.662V379.106H275.898Z" stroke="white" stroke-opacity="0.4" stroke-width="3"/>
<path d="M296.917 379.106V351.218H308.681V379.106H296.917Z" stroke="white" stroke-opacity="0.4" stroke-width="3"/>
<path d="M565.298 380.034V104.695H575.437V380.034H565.298Z" stroke="white" stroke-opacity="0.4" stroke-width="3"/>
<path d="M675.481 101.178L585.696 177.822" stroke="white" stroke-opacity="0.4" stroke-width="3" stroke-linecap="round" stroke-linejoin="round"/>
<path d="M647.013 104.204L580.221 161.687" stroke="white" stroke-opacity="0.4" stroke-width="3" stroke-linecap="round" stroke-linejoin="round"/>
<path d="M156.481 300.856L66.6963 377.5" stroke="white" stroke-opacity="0.4" stroke-width="3" stroke-linecap="round" stroke-linejoin="round"/>
<path d="M128.013 303.882L61.2214 361.365" stroke="white" stroke-opacity="0.4" stroke-width="3" stroke-linecap="round" stroke-linejoin="round"/>
<line x1="1" y1="80.5171" x2="693" y2="80.5171" stroke="white" stroke-opacity="0.4" stroke-width="3"/>
<line x1="31.6582" y1="391.127" x2="693" y2="391.127" stroke="white" stroke-opacity="0.4" stroke-width="3"/>
<line x1="31.6582" y1="414.322" x2="693" y2="414.322" stroke="white" stroke-opacity="0.4" stroke-width="3"/>
<line x1="210.538" y1="83.0254" x2="210.538" y2="390.61" stroke="white" stroke-opacity="0.4" stroke-width="3"/>
<path d="M323.459 392.627V257.491H451.567V392.627" stroke="white" stroke-opacity="0.4" stroke-width="3"/>
<path d="M451.019 265.559H530.949V281.695H451.019" stroke="white" stroke-opacity="0.4" stroke-width="3"/>
<path d="M451.019 298.839H530.949V314.974H451.019" stroke="white" stroke-opacity="0.4" stroke-width="3"/>
<path d="M451.019 332.119H530.949V348.254H451.019" stroke="white" stroke-opacity="0.4" stroke-width="3"/>
<path d="M451.019 365.398H530.949V381.534H451.019" stroke="white" stroke-opacity="0.4" stroke-width="3"/>
<path d="M334.956 392.627L334.956 271.61L349.19 271.61L349.19 392.627" stroke="white" stroke-opacity="0.4" stroke-width="3"/>
<path d="M365.614 392.627L365.614 271.61L379.848 271.61L379.848 392.627" stroke="white" stroke-opacity="0.4" stroke-width="3"/>
<path d="M395.177 392.627L395.177 271.61L409.411 271.61L409.411 392.627" stroke="white" stroke-opacity="0.4" stroke-width="3"/>
<path d="M425.835 392.627L425.835 271.61L440.07 271.61L440.07 392.627" stroke="white" stroke-opacity="0.4" stroke-width="3"/>
<line x1="371.779" y1="257.491" x2="371.779" y2="82.0169" stroke="white" stroke-opacity="0.4" stroke-width="3"/>
<line x1="390.392" y1="257.491" x2="390.392" y2="82.0169" stroke="white" stroke-opacity="0.4" stroke-width="3"/>
<line x1="549.158" y1="392.627" x2="549.158" y2="82.0171" stroke="white" stroke-opacity="0.4" stroke-width="3"/>
<path d="M618.544 127.399V103.195H628.399V118.98" stroke="white" stroke-opacity="0.4" stroke-width="3" stroke-linecap="round"/>
<path d="M591.171 152.106V103.195H601.025V143.534" stroke="white" stroke-opacity="0.4" stroke-width="3" stroke-linecap="round"/>
<path d="M618.544 150.662V380.525H628.399V142.525" stroke="white" stroke-opacity="0.4" stroke-width="3"/>
<path d="M591.171 173.064V380.525H601.025V165.72" stroke="white" stroke-opacity="0.4" stroke-width="3"/>
<path d="M91.8797 334.64V312.958H57.3892V339.682H85.8575" stroke="white" stroke-opacity="0.4" stroke-width="3"/>
<path d="M112.136 339.682H144.437V315.479H139.51" stroke="white" stroke-opacity="0.4" stroke-width="3"/>
<path d="M53.5568 80L28.3733 247.407" stroke="white" stroke-opacity="0.4" stroke-width="3" stroke-linecap="round"/>
<path d="M6.47461 82.0171V241.356" stroke="white" stroke-opacity="0.4" stroke-width="3" stroke-linecap="round"/>
<path d="M1.54761 241.356L31.1173 248.499C33.3619 249.042 34.9432 251.051 34.9432 253.36V259.068C34.9432 262.186 32.1201 264.544 29.0518 263.988L1.54761 259.004" stroke="white" stroke-opacity="0.4" stroke-width="3" stroke-linecap="round"/>
<path d="M27.1496 265.108L33.848 423.738C32.5455 423.398 29.3824 423.84 27.1496 428.329C24.3585 433.94 13.7527 437 5.37964 437V260.517" stroke="white" stroke-opacity="0.4" stroke-width="3" stroke-linecap="round"/>
<path d="M674.423 227.219H530V233.559H674.423V227.219Z" fill="white" stroke="#251E1C" stroke-width="3" stroke-linecap="round" stroke-linejoin="round"/>
<path d="M674.423 442.796H530V449.137H674.423V442.796Z" fill="white" stroke="#251E1C" stroke-width="3" stroke-linecap="round" stroke-linejoin="round"/>
<path d="M674.423 370.937H530V377.278H674.423V370.937Z" fill="white" stroke="#251E1C" stroke-width="3" stroke-linecap="round" stroke-linejoin="round"/>
<path d="M674.423 299.078H530V305.419H674.423V299.078Z" fill="white" stroke="#251E1C" stroke-width="3" stroke-linecap="round" stroke-linejoin="round"/>
<path d="M535.636 227.219H530V459H535.636V227.219Z" fill="white" stroke="#251E1C" stroke-width="3" stroke-linecap="round" stroke-linejoin="round"/>
<path d="M674.423 227.219H668.787V459H674.423V227.219Z" fill="white" stroke="#251E1C" stroke-width="3" stroke-linecap="round" stroke-linejoin="round"/>
<path d="M608.2 431.939C608.2 437.935 612.637 442.796 618.112 442.796H653.943C659.418 442.796 663.855 437.935 663.855 431.939V386.436H608.2V431.939ZM631.674 396.682H640.381C642 396.682 643.312 398.119 643.312 399.893C643.312 401.666 642 403.104 640.381 403.104H631.674C630.055 403.104 628.743 401.666 628.743 399.893C628.743 398.119 630.055 396.682 631.674 396.682Z" fill="white" stroke="#251E1C" stroke-width="3" stroke-linecap="round" stroke-linejoin="round"/>
<path d="M563.112 383.618H557.476V442.796H563.112V383.618Z" fill="#5F5F5F" stroke="#251E1C" stroke-width="3" stroke-linecap="round" stroke-linejoin="round"/>
<path d="M591.292 383.618H585.656V442.796H591.292V383.618Z" fill="#5F5F5F" stroke="#251E1C" stroke-width="3" stroke-linecap="round" stroke-linejoin="round"/>
<path d="M585.656 383.618H580.02V442.796H585.656V383.618Z" fill="#5F5F5F" stroke="#251E1C" stroke-width="3" stroke-linecap="round" stroke-linejoin="round"/>
<path d="M568.748 386.436H563.112V442.796H568.748V386.436Z" fill="#FBC926" stroke="#251E1C" stroke-width="3" stroke-linecap="round" stroke-linejoin="round"/>
<path d="M574.384 386.436H568.748V442.796H574.384V386.436Z" fill="#FBC926" stroke="#251E1C" stroke-width="3" stroke-linecap="round" stroke-linejoin="round"/>
<path d="M596.928 386.436H591.292V442.796H596.928V386.436Z" fill="white" stroke="#251E1C" stroke-width="3" stroke-linecap="round" stroke-linejoin="round"/>
<path d="M601.859 386.436H596.928V442.796H601.859V386.436Z" fill="#FBC926" stroke="#251E1C" stroke-width="3" stroke-linecap="round" stroke-linejoin="round"/>
<path d="M541.272 383.618H535.636V442.796H541.272V383.618Z" fill="#5F5F5F" stroke="#251E1C" stroke-width="3" stroke-linecap="round" stroke-linejoin="round"/>
<path d="M546.908 383.618H541.272V442.796H546.908V383.618Z" fill="#FBC926" stroke="#251E1C" stroke-width="3" stroke-linecap="round" stroke-linejoin="round"/>
<path d="M552.544 389.254H546.908V442.797H552.544V389.254Z" fill="white" stroke="#251E1C" stroke-width="3" stroke-linecap="round" stroke-linejoin="round"/>
<path d="M557.476 389.254H552.544V442.797H557.476V389.254Z" fill="white" stroke="#251E1C" stroke-width="3" stroke-linecap="round" stroke-linejoin="round"/>
<path d="M580.02 389.254H574.384V442.797H580.02V389.254Z" fill="white" stroke="#251E1C" stroke-width="3" stroke-linecap="round" stroke-linejoin="round"/>
<path d="M637.25 227.205H653.186L642.848 192.892L637.25 227.205Z" stroke="#251E1C" stroke-width="3" stroke-linecap="round" stroke-linejoin="round"/>
<path d="M599.6 227.205H641.683L648.089 181.402H606.006L599.6 227.205Z" fill="#5F5F5F" stroke="#251E1C" stroke-width="3" stroke-linecap="round" stroke-linejoin="round"/>
<path d="M605.269 222.274H637.393L642.42 186.334H610.296L605.269 222.274Z" fill="white" stroke="#251E1C" stroke-width="3" stroke-linecap="round" stroke-linejoin="round"/>
<path d="M560.949 172.759L573.582 215.216" stroke="#251E1C" stroke-width="3" stroke-linecap="round" stroke-linejoin="round"/>
<path d="M582.624 173.608L568.971 218.557" stroke="#251E1C" stroke-width="3" stroke-linecap="round" stroke-linejoin="round"/>
<path d="M567.265 175.874L573.582 221.625" stroke="#251E1C" stroke-width="3" stroke-linecap="round" stroke-linejoin="round"/>
<path d="M572.162 171L573.582 221.625" stroke="#251E1C" stroke-width="3" stroke-linecap="round" stroke-linejoin="round"/>
<path d="M577.256 176.494L568.971 218.557" stroke="#251E1C" stroke-width="3" stroke-linecap="round" stroke-linejoin="round"/>
<path d="M578.982 195.478L565.54 195.467C567.802 214.872 555.689 215.718 561.629 227.149C561.629 227.149 583.366 227.275 583.459 227.149C587.722 214.071 575.141 211.753 578.982 195.478Z" fill="white" stroke="#251E1C" stroke-width="3" stroke-linecap="round" stroke-linejoin="round"/>
<path d="M668.66 315.899H655.348V370.577H668.66V315.899Z" fill="#FBC926" stroke="#251E1C" stroke-width="3" stroke-linecap="round" stroke-linejoin="round"/>
<path d="M668.66 327.717H655.318V332.222H668.66V327.717Z" fill="white" stroke="#251E1C" stroke-width="3" stroke-linecap="round" stroke-linejoin="round"/>
<path d="M655.318 315.899H642.006V370.577H655.318V315.899Z" fill="#5F5F5F" stroke="#251E1C" stroke-width="3" stroke-linecap="round" stroke-linejoin="round"/>
<path d="M655.318 327.717H641.977V332.222H655.318V327.717Z" fill="white" stroke="#251E1C" stroke-width="3" stroke-linecap="round" stroke-linejoin="round"/>
<path d="M641.976 315.899H628.664V370.577H641.976V315.899Z" fill="#FBC926" stroke="#251E1C" stroke-width="3" stroke-linecap="round" stroke-linejoin="round"/>
<path d="M641.977 327.717H628.635V332.222H641.977V327.717Z" fill="white" stroke="#251E1C" stroke-width="3" stroke-linecap="round" stroke-linejoin="round"/>
<path d="M628.664 315.899H615.352V370.577H628.664V315.899Z" fill="#5F5F5F" stroke="#251E1C" stroke-width="3" stroke-linecap="round" stroke-linejoin="round"/>
<path d="M628.664 327.717H615.323V332.222H628.664V327.717Z" fill="white" stroke="#251E1C" stroke-width="3" stroke-linecap="round" stroke-linejoin="round"/>
<path d="M615.323 315.899H602.01V370.577H615.323V315.899Z" fill="#FBC926" stroke="#251E1C" stroke-width="3" stroke-linecap="round" stroke-linejoin="round"/>
<path d="M615.322 327.717H601.981V332.222H615.322V327.717Z" fill="white" stroke="#251E1C" stroke-width="3" stroke-linecap="round" stroke-linejoin="round"/>
<path d="M601.981 315.899H588.669V370.577H601.981V315.899Z" fill="#5F5F5F" stroke="#251E1C" stroke-width="3" stroke-linecap="round" stroke-linejoin="round"/>
<path d="M601.981 327.717H588.639V332.222H601.981V327.717Z" fill="white" stroke="#251E1C" stroke-width="3" stroke-linecap="round" stroke-linejoin="round"/>
<path d="M549.049 314.305L535.606 367.304L548.51 370.577L561.953 317.577L549.049 314.305Z" fill="#FBC926" stroke="#251E1C" stroke-width="3" stroke-linecap="round" stroke-linejoin="round"/>
<path d="M546.115 325.752L545.008 330.119L557.94 333.399L559.047 329.033L546.115 325.752Z" fill="white" stroke="#251E1C" stroke-width="3" stroke-linecap="round" stroke-linejoin="round"/>
<path d="M562.848 314.305L549.405 367.304L562.309 370.577L575.752 317.577L562.848 314.305Z" fill="#5F5F5F" stroke="#251E1C" stroke-width="3" stroke-linecap="round" stroke-linejoin="round"/>
<path d="M559.914 325.752L558.806 330.119L571.739 333.399L572.846 329.033L559.914 325.752Z" fill="white" stroke="#251E1C" stroke-width="3" stroke-linecap="round" stroke-linejoin="round"/>
<path d="M588.669 315.899H575.356V370.577H588.669V315.899Z" fill="#FBC926" stroke="#251E1C" stroke-width="3" stroke-linecap="round" stroke-linejoin="round"/>
<path d="M588.669 327.717H575.327V332.222H588.669V327.717Z" fill="white" stroke="#251E1C" stroke-width="3" stroke-linecap="round" stroke-linejoin="round"/>
<path d="M544.794 299.078H573.679V241.309H544.794V299.078ZM556.37 248.146H562.103C563.905 248.146 565.366 249.512 565.366 251.198C565.366 252.883 563.905 254.249 562.103 254.249H556.37C554.568 254.249 553.107 252.883 553.107 251.198C553.107 249.512 554.568 248.146 556.37 248.146Z" fill="white" stroke="#251E1C" stroke-width="3" stroke-linecap="round" stroke-linejoin="round"/>
<path d="M573.679 299.078H601.859V241.309H573.679V299.078ZM584.973 248.146H590.566C592.324 248.146 593.75 249.512 593.75 251.198C593.75 252.883 592.324 254.249 590.566 254.249H584.973C583.214 254.249 581.789 252.883 581.789 251.198C581.789 249.512 583.214 248.146 584.973 248.146Z" fill="white" stroke="#251E1C" stroke-width="3" stroke-linecap="round" stroke-linejoin="round"/>
<path d="M601.859 299.078H630.744V241.309H601.859V299.078ZM613.435 248.146H619.168C620.97 248.146 622.431 249.512 622.431 251.198C622.431 252.883 620.97 254.249 619.168 254.249H613.435C611.633 254.249 610.172 252.883 610.172 251.198C610.172 249.512 611.633 248.146 613.435 248.146Z" fill="white" stroke="#251E1C" stroke-width="3" stroke-linecap="round" stroke-linejoin="round"/>
<path d="M630.744 299.078H658.924V241.309H630.744V299.078ZM642.038 248.146H647.63C649.389 248.146 650.814 249.512 650.814 251.198C650.814 252.883 649.389 254.249 647.63 254.249H642.038C640.279 254.249 638.854 252.883 638.854 251.198C638.854 249.512 640.279 248.146 642.038 248.146Z" fill="white" stroke="#251E1C" stroke-width="3" stroke-linecap="round" stroke-linejoin="round"/>
<path d="M137.417 128.385V44" stroke="#251E1C" stroke-width="3" stroke-linecap="round" stroke-linejoin="round"/>
<path d="M137.417 106.223C129.455 106.223 123 112.678 123 120.64V150.548H151.834V120.64C151.834 112.678 145.379 106.223 137.417 106.223Z" fill="white" stroke="#251E1C" stroke-width="3" stroke-linecap="round" stroke-linejoin="round"/>
<path d="M585.417 119.594V2" stroke="#251E1C" stroke-width="3" stroke-linecap="round" stroke-linejoin="round"/>
<path d="M585.417 103.436C577.455 103.436 571 109.891 571 117.853V147.761H599.834V117.853C599.834 109.891 593.379 103.436 585.417 103.436Z" fill="white" stroke="#251E1C" stroke-width="3" stroke-linecap="round" stroke-linejoin="round"/>
<path d="M643.698 107.412V2" stroke="#251E1C" stroke-width="3" stroke-linecap="round" stroke-linejoin="round"/>
<path d="M643.698 83.1685C635.736 83.1685 629.281 89.6232 629.281 97.5856V127.493H658.115V97.5856C658.115 89.6232 651.661 83.1685 643.698 83.1685Z" fill="white" stroke="#251E1C" stroke-width="3" stroke-linecap="round" stroke-linejoin="round"/>
<path d="M122.466 358.944L113.7 446.554L118.352 447.019L127.118 359.41L122.466 358.944Z" fill="white" stroke="#251E1C" stroke-width="3" stroke-linecap="round" stroke-linejoin="round"/>
<path d="M161.057 399.539H105.565V404.781H161.057V399.539Z" fill="white" stroke="#251E1C" stroke-width="3" stroke-linecap="round" stroke-linejoin="round"/>
<path d="M106.766 358.918L98 446.528L102.914 447.019L111.68 359.41L106.766 358.918Z" fill="white" stroke="#251E1C" stroke-width="3" stroke-linecap="round" stroke-linejoin="round"/>
<path d="M158.405 359.063L153.276 359.576L162.042 447.186L167.171 446.673L158.405 359.063Z" fill="white" stroke="#251E1C" stroke-width="3" stroke-linecap="round" stroke-linejoin="round"/>
<path d="M161.802 355.935H103.211V361.614H161.802V355.935Z" fill="white" stroke="#251E1C" stroke-width="3" stroke-linecap="round" stroke-linejoin="round"/>
<path d="M132.507 376.087L142.2 447.188H199L189.307 376.087H132.507Z" fill="white" stroke="#251E1C" stroke-width="3" stroke-linecap="round" stroke-linejoin="round"/>
<path d="M137.263 380.24L145.824 443.036H194.243L185.682 380.24H137.263Z" fill="white" stroke="#251E1C" stroke-width="3" stroke-linecap="round" stroke-linejoin="round"/>
<path d="M150.504 438.884H189.596L182.039 385.619L150.504 438.884Z" fill="#FBC926"/>
<path d="M155.526 344.701H109.487V355.91H155.526V344.701Z" fill="#FBC926" stroke="#251E1C" stroke-width="3" stroke-linecap="round" stroke-linejoin="round"/>
<path d="M123.231 344.702H119.438V355.935H123.231V344.702Z" fill="white" stroke="#251E1C" stroke-width="3" stroke-linecap="round" stroke-linejoin="round"/>
<path d="M148.71 333.468H102.671V344.677H148.71V333.468Z" fill="white" stroke="#251E1C" stroke-width="3" stroke-linecap="round" stroke-linejoin="round"/>
<path d="M116.415 333.468H112.622V344.702H116.415V333.468Z" fill="white" stroke="#251E1C" stroke-width="3" stroke-linecap="round" stroke-linejoin="round"/>
<path d="M155.526 322.234H109.487V333.443H155.526V322.234Z" fill="#5F5F5F" stroke="#251E1C" stroke-width="3" stroke-linecap="round" stroke-linejoin="round"/>
<path d="M123.231 322.234H119.438V333.468H123.231V322.234Z" fill="white" stroke="#251E1C" stroke-width="3" stroke-linecap="round" stroke-linejoin="round"/>
<path d="M160.283 311H114.244V322.209H160.283V311Z" fill="#FBC926" stroke="#251E1C" stroke-width="3" stroke-linecap="round" stroke-linejoin="round"/>
<path d="M127.988 311H124.195V322.234H127.988V311Z" fill="white" stroke="#251E1C" stroke-width="3" stroke-linecap="round" stroke-linejoin="round"/>
<path d="M383.341 427.55L378 366.6L392.955 362V424.867C393.193 426.911 392.599 431 388.326 431C384.053 431 383.223 428.7 383.341 427.55Z" fill="#FFFBCC" stroke="black" stroke-width="3" stroke-linecap="round"/>
<path d="M433.08 415.51L416.075 356.943L429.628 349.01L441.846 410.679C442.473 412.63 442.694 416.777 438.567 417.754C434.439 418.731 433.189 416.665 433.08 415.51Z" fill="#FFFBCC" stroke="black" stroke-width="3" stroke-linecap="round"/>
<path d="M442.607 251.528C431.626 240.829 412.925 241.674 404.947 243.433C384.417 246.132 337.865 253.147 315.903 259.623C288.45 267.718 272.612 298.338 271.204 321.919C269.796 345.5 284.227 359.931 302.88 367.674C321.534 375.417 374.327 371.193 388.054 370.137C401.78 369.081 431.696 361.69 448.942 336.35C466.188 311.009 456.333 264.903 442.607 251.528Z" fill="white" stroke="#393939" stroke-width="3" stroke-linecap="round"/>
<path d="M397.048 223.169C392.296 219.8 386.454 217.998 380.733 216.252C376.572 219.217 370.96 221.017 365.343 221.398C361.754 221.639 358.757 218.013 355.534 216.252C352.38 218.849 342.783 217.474 339.189 221.398L343.513 235.538C341.762 243.444 338.958 250.941 339.189 259.08C339.385 266.002 341.731 272.484 340.913 279.337C339.963 287.286 336.783 286.906 340.239 294.386C339.95 296.039 339.018 299.413 337.22 305.168C342.935 306.155 374.159 311.727 390.629 312.933C390.316 305.267 399.539 299.239 400 299.5C402.58 295.785 393.004 290.182 391.969 288.503C389.141 283.901 396.714 285.283 398.475 279.337V250.908L407.861 233.258C406.332 229.813 400.358 225.516 397.048 223.169Z" fill="#FBC000"/>
<path d="M378.5 210.5L368 216.5L371 226L383 216.5L378.5 210.5Z" fill="white"/>
<path d="M362.3 212L356 216.258L357.8 223L365 216.258L362.3 212Z" fill="white"/>
<path d="M367.3 216L361 220.258L362.8 227L370 220.258L367.3 216Z" fill="white"/>
<rect x="330.871" y="401.55" width="18.5849" height="20.5472" fill="#D9D9D9" stroke="black" stroke-width="3"/>
<path d="M336.887 416.027C331.296 414.535 328.346 416.649 327.569 417.892C326.637 419.602 324.494 423.394 323.376 424.886C321.979 426.751 312.195 437.942 309.4 440.74C306.605 443.537 308.002 453.329 309.4 454.728C310.798 456.127 312.661 456.593 321.047 456.127C329.433 455.661 334.557 451.93 336.887 450.065C339.216 448.2 339.682 445.869 340.614 443.537C341.546 441.206 343.875 441.672 346.67 439.807C349.465 437.942 350.397 433.745 350.863 432.347C351.236 431.228 350.397 420.379 349.931 415.094L348.068 416.027L342.477 423.021C342.943 421.311 342.477 417.519 336.887 416.027Z" fill="#FBC000" stroke="black" stroke-width="3" stroke-linecap="round"/>
<rect x="285.085" y="390.431" width="18.5849" height="20.5472" fill="#D9D9D9" stroke="black" stroke-width="3"/>
<path d="M291.101 404.907C285.51 403.415 282.56 405.529 281.783 406.772C280.851 408.482 278.708 412.274 277.59 413.766C276.192 415.632 266.409 426.822 263.614 429.62C260.819 432.418 262.216 442.21 263.614 443.608C265.011 445.007 266.875 445.474 275.261 445.007C283.647 444.541 288.771 440.811 291.101 438.946C293.43 437.081 293.896 434.749 294.828 432.418C295.759 430.086 298.089 430.553 300.884 428.687C303.679 426.822 304.611 422.626 305.077 421.227C305.45 420.108 304.611 409.259 304.145 403.975L302.282 404.907L296.691 411.901C297.157 410.192 296.691 406.399 291.101 404.907Z" fill="#FBC000" stroke="black" stroke-width="3" stroke-linecap="round"/>
<path d="M363.064 339.518L379.958 334.238L388.405 311.361L371.511 309.25L329.628 306.082C316.958 308.663 290.561 314.177 286.338 315.585C281.058 317.345 281.411 322.976 281.411 325.088V398.294C281.059 398.998 282.607 400.829 291.617 402.518C300.627 404.207 307.103 401.814 309.215 400.406L313.087 339.518L331.036 332.479L328.221 400.406C327.634 400.875 326.813 402.659 328.221 406.037C329.628 409.416 345.936 409.088 353.913 408.501L363.064 339.518Z" fill="black" stroke="black" stroke-width="3" stroke-linecap="round"/>
<path d="M385.154 188.75L383.546 189.19C384.127 188.945 384.663 188.804 385.154 188.75L385.556 188.64C386.921 179.895 385.627 174.894 380.292 171.348C375.49 168.209 370.061 169.069 363.629 170.103C356.892 171.553 351.859 178.214 352.29 185.266C352.668 191.01 352.728 200.401 356.44 204.689C358.264 206.699 360.298 208.627 363.214 210.096C364.711 210.851 366.428 211.242 368.126 210.828C369.464 210.501 370.771 209.954 371.99 209.399C377.864 206.49 379.349 206.824 381.627 202.189C390.045 201.873 390.732 188.135 385.154 188.75Z" fill="#F4E8D7"/>
<path d="M385.153 188.751C384.663 188.805 384.127 188.946 383.545 189.19L385.153 188.751Z" fill="#F4E8D7"/>
<path d="M369 207H361.5V212L368 216.5L380.5 210.5V201.5L369 207Z" fill="#F4E8D7"/>
<path d="M346.877 231.364C345.121 226.767 344.2 222.409 339.446 221.188C332.217 224.597 324.805 245.417 322.235 259.28C320.308 258.355 318.229 259.543 318.043 262.157C312.394 262.305 305.898 258.568 304.797 262.959C304.045 262.851 303.697 262.815 303.373 262.783C302.436 262.691 301.571 263.281 301.306 264.185C300.414 267.221 300.254 270.634 300.303 273.907C300.316 274.735 300.914 275.439 301.728 275.593C302.505 275.741 302.717 275.738 304.006 276.047C305.667 278.942 319.923 282.333 326.364 281.671C330.089 281.288 334.576 276.668 335.036 275.837C341.778 263.676 344.525 258.784 346.109 247.769C346.81 242.898 348.633 235.961 346.877 231.364Z" fill="#FBC000"/>
<path d="M283.197 263.784L280.795 264.287C279.886 264.478 279.133 265.114 278.795 265.98L277.397 269.555L277.413 273.124C277.352 274.458 278.417 275.572 279.752 275.572C280.941 275.571 281.941 274.68 282.078 273.498L283.197 263.784Z" fill="#F6EDDD" stroke="#251E1C" stroke-width="3" stroke-linecap="round" stroke-linejoin="round"/>
<path d="M289.121 260.723L285.589 261.578C284.592 261.819 283.767 262.516 283.364 263.459L281.615 267.547L281.815 273.327C281.729 275.04 283.187 276.427 284.893 276.256C286.186 276.126 287.22 275.124 287.39 273.835L289.121 260.723Z" fill="#F6EDDD" stroke="#251E1C" stroke-width="3" stroke-linecap="round" stroke-linejoin="round"/>
<path d="M303.76 266.798C302.561 264.076 300.535 261.8 297.971 260.291L295.155 258.635C294.052 257.986 292.68 257.998 291.588 258.667L289 260.253C288.038 260.843 287.371 261.814 287.165 262.924L285.782 270.383C285.442 272.216 287.008 273.838 288.851 273.563C289.963 273.398 290.858 272.563 291.102 271.465L297.568 270.401L295.025 272.61C294.316 273.226 294.026 274.194 294.278 275.098C294.686 276.559 296.317 277.293 297.681 276.63L301.803 274.625L303.829 269.22C304.123 268.435 304.098 267.566 303.76 266.798Z" fill="#F6EDDD"/>
<path d="M291.102 271.465C290.858 272.563 289.963 273.398 288.851 273.563C287.008 273.838 285.442 272.216 285.782 270.383L287.165 262.924C287.371 261.814 288.038 260.843 289 260.253L291.588 258.667C292.68 257.998 294.052 257.986 295.155 258.635L297.971 260.291C300.535 261.8 302.561 264.076 303.76 266.798C304.099 267.566 304.123 268.435 303.829 269.22L301.803 274.625L297.681 276.63C296.317 277.293 294.686 276.559 294.278 275.098C294.026 274.194 294.316 273.226 295.025 272.61L297.568 270.401M291.102 271.465L292.221 266.407L294.235 264.414M291.102 271.465L297.568 270.401M297.568 270.401L298.135 268.774" stroke="#251E1C" stroke-width="3" stroke-linecap="round" stroke-linejoin="round"/>
<path d="M361.421 202.323C363.22 203.355 365.173 203.142 367.029 201.862" stroke="black" stroke-width="2" stroke-linecap="round" stroke-linejoin="round"/>
<path d="M385.045 301.161C375.365 299.182 367.148 298.41 360.213 297.739L385.045 301.161Z" fill="#464B4B" stroke="#251E1C" stroke-width="3" stroke-linecap="round" stroke-linejoin="round"/>
<path d="M360.213 297.739L346.107 295.795C350.069 296.742 354.742 297.209 360.213 297.739Z" fill="#464B4B" stroke="#251E1C" stroke-width="3" stroke-linecap="round" stroke-linejoin="round"/>
<path d="M355.862 216.251C350.847 217.015 340.294 219.26 338.201 222.138C335.367 224.864 328.979 232.865 326.101 243.069C323.223 253.273 322.503 258.222 322.503 259.421C322.067 259.094 320.868 258.636 319.56 259.421" stroke="black" stroke-width="3" stroke-linecap="round"/>
<path d="M335.585 238.818L334.277 260.075" stroke="black" stroke-width="3" stroke-linecap="round"/>
<path d="M391.835 249.677C393.066 257.015 392.304 264.56 393.847 273.753C391.609 274.645 391.454 274.516 391.884 278.265C375.946 281.891 373.899 282.675 374.269 285.172C372.518 285.48 370.701 285.918 368.863 286.695C367.605 287.227 366.926 288.604 367.231 289.936C368.07 293.596 368.506 295.235 369.6 300.077C369.895 301.379 371.033 302.317 372.368 302.354C375.382 302.438 375.042 302.36 378.817 301.282C382.714 302.48 386.905 300.18 403.444 295.456C410.598 293.413 410.848 286.755 410.274 276.873C409.055 255.866 412.892 239.059 405.958 232.355L391.835 249.677Z" fill="#FBC000"/>
<path d="M391.835 249.677C393.066 257.015 392.303 264.561 393.846 273.753C391.609 274.645 391.454 274.517 391.884 278.265C375.946 281.891 373.899 282.676 374.269 285.172C372.518 285.481 370.701 285.918 368.863 286.695C367.605 287.227 366.925 288.604 367.231 289.936C368.07 293.596 368.506 295.235 369.6 300.077C369.895 301.379 371.033 302.317 372.368 302.354C375.381 302.438 375.042 302.36 378.817 301.282C382.713 302.48 386.905 300.181 403.444 295.457C410.598 293.413 410.848 286.756 410.274 276.874" stroke="#251E1C" stroke-width="3" stroke-linecap="round" stroke-linejoin="round"/>
<path d="M376.382 288.17C377.428 290.994 378.227 293.889 378.771 296.826" stroke="#251E1C" stroke-width="3" stroke-linecap="round" stroke-linejoin="round"/>
<path d="M391.978 244.948C394.051 240.689 396.945 236.818 400.456 233.607" stroke="#251E1C" stroke-width="3" stroke-linecap="round" stroke-linejoin="round"/>
<path d="M348.793 296.676L344.967 300.165L343.917 302.947L344.987 300.174L348.793 296.676Z" fill="#F6EDDD" stroke="#251E1C" stroke-width="3" stroke-linecap="round" stroke-linejoin="round"/>
<path d="M359.352 288.266C358.445 288.167 357.532 288.215 356.642 288.41L350.514 289.749C348.787 290.127 347.205 291.046 345.959 292.396L341.377 297.4L339.781 303.423C339.545 304.313 339.869 305.288 340.568 305.795C341.521 306.486 342.766 306.044 343.175 304.869L343.917 302.947L344.967 300.166L348.793 296.676L344.987 300.174L343.917 302.947L342.561 306.541C342.152 307.711 342.598 309.068 343.589 309.672C344.689 310.341 346.031 309.833 346.529 308.557L347.032 307.367C347.036 307.35 347.037 307.333 347.041 307.316L347.2 306.971L348.864 303.041L353.461 299.799L349.007 303.06L347.2 306.971L347.032 307.367C346.818 308.508 347.478 309.655 348.494 309.886C349.345 310.08 350.433 309.708 350.881 308.921L352.853 306.216L357.81 303.745L370.041 300.839L367.571 290.044L359.352 288.266Z" fill="#F6EDDD"/>
<path d="M343.917 302.947L343.175 304.869C342.766 306.044 341.521 306.486 340.568 305.795C339.869 305.288 339.545 304.313 339.781 303.423L341.377 297.4L345.959 292.396C347.205 291.046 348.787 290.127 350.514 289.749L356.642 288.41C357.532 288.215 358.445 288.167 359.352 288.266L367.571 290.044L370.041 300.839L357.81 303.745L352.853 306.216L350.881 308.921C350.433 309.708 349.345 310.08 348.494 309.886C347.478 309.655 346.818 308.508 347.032 307.367M343.917 302.947L344.967 300.166L348.793 296.676L344.987 300.174L343.917 302.947ZM343.917 302.947L342.561 306.541C342.152 307.711 342.598 309.068 343.589 309.672C344.689 310.341 346.031 309.833 346.529 308.557L347.032 307.367M347.032 307.367C347.036 307.35 347.037 307.333 347.041 307.316L347.2 306.971M347.032 307.367L347.2 306.971M347.2 306.971L348.864 303.041L353.461 299.799L349.007 303.06L347.2 306.971Z" stroke="#251E1C" stroke-width="3" stroke-linecap="round" stroke-linejoin="round"/>
<path d="M347.041 307.315C347.037 307.332 347.036 307.349 347.032 307.367L347.2 306.971L347.041 307.315Z" fill="#F6EDDD" stroke="#251E1C" stroke-width="3" stroke-linecap="round" stroke-linejoin="round"/>
<path d="M389.927 309.399H346.435C345.245 309.399 344.281 310.364 344.281 311.554V312.677C344.281 313.867 345.245 314.831 346.435 314.831H389.927C391.117 314.831 392.082 313.867 392.082 312.677V311.554C392.082 310.364 391.117 309.399 389.927 309.399Z" fill="#DCDCDC" stroke="#251E1C" stroke-width="3" stroke-linecap="round" stroke-linejoin="round"/>
<path d="M345.511 260.729H273.976C272.78 260.729 271.811 261.773 271.811 263.06L279.817 312.502C279.817 313.788 280.786 314.832 281.981 314.832H353.516C354.712 314.832 355.681 313.788 355.681 312.502L347.675 263.06C347.675 261.773 346.706 260.729 345.511 260.729Z" fill="#DCDCDC" stroke="#251E1C" stroke-width="3" stroke-linecap="round" stroke-linejoin="round"/>
<path d="M285.375 309.436H349.502" stroke="#251E1C" stroke-width="3" stroke-linecap="round" stroke-linejoin="round"/>
<path d="M312.254 291.257C314.174 291.257 315.73 289.7 315.73 287.78C315.73 285.86 314.174 284.304 312.254 284.304C310.334 284.304 308.778 285.86 308.778 287.78C308.778 289.7 310.334 291.257 312.254 291.257Z" fill="white" stroke="#251E1C" stroke-width="3" stroke-linecap="round" stroke-linejoin="round"/>
<path d="M371.229 175.989C374.494 176.251 377.124 174.787 378.031 174.022C377.804 175.224 377.351 178.349 377.351 181.233C377.351 184.118 378.938 185.713 379.732 186.15C379.845 186.478 380.072 187.461 380.072 188.772C380.072 190.084 381.659 191.067 382.452 191.395C383.019 190.739 384.493 189.428 385.853 189.428C387.213 189.428 387.1 191.176 386.873 192.05C387.1 191.832 387.758 191.133 388.574 190.084C389.594 188.772 392.995 183.856 391.975 175.989C391.158 169.695 385.74 168.559 383.132 168.778C382.339 166.92 379.255 162.681 373.27 160.583C367.285 158.485 361.254 162.55 358.986 164.844C356.492 164.516 350.892 164.385 348.444 166.483C345.383 169.105 346.403 173.367 346.743 175.989C347.083 178.611 345.723 177.956 345.723 181.233C345.723 183.856 350.711 185.822 353.205 186.478C353.318 185.713 353.749 183.725 354.565 181.889C355.586 179.594 355.926 179.922 358.986 179.267C362.047 178.611 362.047 176.644 363.408 175.006C364.768 173.367 367.148 175.661 371.229 175.989Z" fill="black"/>
<path d="M373.295 184.445C372.672 183.896 371.912 184.098 371.239 183.822C370.298 183.773 369.356 183.667 368.417 183.697C367.874 183.715 367.434 183.605 367.326 182.884C367.21 182.115 367.687 181.715 368.158 181.66C370.352 181.401 372.488 181.819 374.537 182.859C374.993 183.091 375.347 183.565 375.045 184.303C374.802 184.898 374.42 184.971 373.961 184.717C373.748 184.6 373.517 184.534 373.295 184.445Z" fill="#070605"/>
<path d="M354.47 185.099C354.989 184.549 355.622 184.752 356.183 184.475C356.967 184.427 357.752 184.321 358.535 184.351C358.987 184.369 359.354 184.259 359.444 183.538C359.541 182.769 359.143 182.369 358.751 182.314C356.922 182.054 355.142 182.473 353.435 183.513C353.055 183.744 352.76 184.218 353.011 184.957C353.214 185.552 353.533 185.625 353.915 185.371C354.092 185.253 354.284 185.188 354.47 185.099Z" fill="#070605"/>
<path d="M361.995 188.175C361.693 187.137 360.637 185.804 357.669 185.557C354.701 185.31 353.745 186.1 353.745 186.1C353.745 186.1 352.538 187.475 353.041 189.479C353.544 191.483 354.377 192.916 356.713 193.261C359.049 193.607 360.586 193.014 361.14 191.73C361.693 190.446 362.297 189.212 361.995 188.175Z" fill="white" stroke="black" stroke-width="2" stroke-miterlimit="10" stroke-linecap="round"/>
<path d="M369.617 193.3C366.925 192.97 365.713 192.254 365.376 189.287C365.038 186.321 367.695 185.798 367.695 185.798C367.695 185.798 372.037 184.638 374.336 186.97C376.635 189.302 373.377 192.456 373.377 192.456C373.377 192.456 372.309 193.63 369.617 193.3Z" fill="white" stroke="black" stroke-width="2" stroke-miterlimit="10" stroke-linecap="round"/>
<path d="M362.075 189.434C362.075 189.434 362.56 187.99 363.695 188.136C364.83 188.283 365.346 188.78 365.346 188.78" stroke="black" stroke-width="2" stroke-miterlimit="10" stroke-linecap="round"/>
<path d="M375.157 189.434H381.698" stroke="black" stroke-width="2" stroke-miterlimit="10" stroke-linecap="round"/>
<path d="M361.739 191.396C361.739 191.396 361.025 196.09 361.739 197.013C362.453 197.937 364.038 197.937 364.038 197.937" stroke="black" stroke-width="2" stroke-miterlimit="10" stroke-linecap="round"/>
<path d="M352.616 172.428C352.616 172.428 351.551 196.182 354.693 202.42C357.835 208.657 364.338 212.484 367.621 211.873C370.904 211.262 377.12 207.592 378.815 205.335" stroke="black" stroke-width="2.5" stroke-miterlimit="10" stroke-linecap="round"/>
<path d="M367.314 189.887C367.423 189.007 368.046 188.117 369.039 188.126C369.861 188.133 370.661 189.053 370.572 189.873C370.49 190.617 370.12 191.462 368.811 191.392C367.699 191.333 367.25 190.813 367.314 189.887Z" fill="#080808"/>
<path d="M358.151 189.812C358.024 190.545 358.041 191.374 357.067 191.396C356.137 191.417 355.526 190.923 355.535 189.901C355.542 188.944 356.181 188.249 356.973 188.139C357.992 187.998 357.958 189.062 358.151 189.812Z" fill="#080808"/>
<path d="M382.025 193.031C382.352 191.614 383.53 189.107 385.623 190.415C388.239 192.05 388.239 194.339 387.912 195.648C387.65 196.694 383.878 200.88 382.025 202.842" stroke="black" stroke-width="3" stroke-linecap="round"/>
<path d="M383.987 216.906C390.092 219.304 403.283 225.801 407.207 232.604C411.132 239.406 411.35 260.729 410.478 277.082" stroke="black" stroke-width="3" stroke-linecap="round"/>
<path d="M379 206V210" stroke="black" stroke-width="3" stroke-linecap="round"/>
<path d="M366.327 216.906L379.409 210.365L382.679 215.924L370.906 224.755L368.289 218.214" stroke="black" stroke-width="3" stroke-linecap="round"/>
<path d="M366.327 217.232L360.767 211.346L356.189 214.943L357.497 223.446L363.384 218.214" stroke="black" stroke-width="3" stroke-linecap="round"/>
<path d="M382 337.413C383.173 331.665 385.801 319.534 386.927 317" stroke="black" stroke-width="3" stroke-linecap="round"/>
<path d="M391 309.067C392.291 305.196 398.25 296.397 411.765 292.173C425.28 287.95 435.698 275.631 439.218 270" stroke="black" stroke-width="3" stroke-linecap="round"/>
<path fill-rule="evenodd" clip-rule="evenodd" d="M507 132C507 130.895 506.105 130 505 130H403C401.895 130 401 130.895 401 132V192C401 193.105 401.895 194 403 194H430.438C431.74 194 432.694 195.223 432.379 196.485L430.343 204.627C429.889 206.443 431.957 207.832 433.466 206.725L450.29 194.387C450.633 194.136 451.048 194 451.473 194H505C506.105 194 507 193.105 507 192V132Z" fill="white"/>
<path d="M450.29 194.387L449.403 193.178L450.29 194.387ZM433.466 206.725L434.353 207.934L433.466 206.725ZM403 131.5H505V128.5H403V131.5ZM402.5 192V132H399.5V192H402.5ZM430.438 192.5H403V195.5H430.438V192.5ZM431.799 204.991L433.834 196.849L430.924 196.121L428.888 204.263L431.799 204.991ZM449.403 193.178L432.579 205.515L434.353 207.934L451.177 195.597L449.403 193.178ZM505 192.5H451.473V195.5H505V192.5ZM505.5 132V192H508.5V132H505.5ZM505 195.5C506.933 195.5 508.5 193.933 508.5 192H505.5C505.5 192.276 505.276 192.5 505 192.5V195.5ZM451.177 195.597C451.263 195.534 451.367 195.5 451.473 195.5V192.5C450.728 192.5 450.003 192.737 449.403 193.178L451.177 195.597ZM428.888 204.263C428.093 207.442 431.711 209.872 434.353 207.934L432.579 205.515C432.202 205.792 431.685 205.445 431.799 204.991L428.888 204.263ZM430.438 195.5C430.764 195.5 431.002 195.806 430.924 196.121L433.834 196.849C434.386 194.64 432.715 192.5 430.438 192.5V195.5ZM399.5 192C399.5 193.933 401.067 195.5 403 195.5V192.5C402.724 192.5 402.5 192.276 402.5 192H399.5ZM505 131.5C505.276 131.5 505.5 131.724 505.5 132H508.5C508.5 130.067 506.933 128.5 505 128.5V131.5ZM403 128.5C401.067 128.5 399.5 130.067 399.5 132H402.5C402.5 131.724 402.724 131.5 403 131.5V128.5Z" fill="#393939"/>
<path fill-rule="evenodd" clip-rule="evenodd" d="M189 174C189 172.895 189.895 172 191 172H293C294.105 172 295 172.895 295 174V234C295 235.105 294.105 236 293 236H265.562C264.26 236 263.306 237.223 263.621 238.485L265.657 246.627C266.111 248.443 264.043 249.832 262.534 248.725L245.71 236.387C245.367 236.136 244.952 236 244.527 236H191C189.895 236 189 235.105 189 234V174Z" fill="white"/>
<path d="M245.71 236.387L246.597 235.178L245.71 236.387ZM262.534 248.725L261.647 249.934L262.534 248.725ZM293 173.5H191V170.5H293V173.5ZM293.5 234V174H296.5V234H293.5ZM265.562 234.5H293V237.5H265.562V234.5ZM264.201 246.991L262.166 238.849L265.076 238.121L267.112 246.263L264.201 246.991ZM246.597 235.178L263.421 247.515L261.647 249.934L244.823 237.597L246.597 235.178ZM191 234.5H244.527V237.5H191V234.5ZM190.5 174V234H187.5V174H190.5ZM191 237.5C189.067 237.5 187.5 235.933 187.5 234H190.5C190.5 234.276 190.724 234.5 191 234.5V237.5ZM244.823 237.597C244.737 237.534 244.633 237.5 244.527 237.5V234.5C245.272 234.5 245.997 234.737 246.597 235.178L244.823 237.597ZM267.112 246.263C267.907 249.442 264.289 251.872 261.647 249.934L263.421 247.515C263.798 247.792 264.315 247.445 264.201 246.991L267.112 246.263ZM265.562 237.5C265.236 237.5 264.998 237.806 265.076 238.121L262.166 238.849C261.614 236.64 263.285 234.5 265.562 234.5V237.5ZM296.5 234C296.5 235.933 294.933 237.5 293 237.5V234.5C293.276 234.5 293.5 234.276 293.5 234H296.5ZM191 173.5C190.724 173.5 190.5 173.724 190.5 174H187.5C187.5 172.067 189.067 170.5 191 170.5V173.5ZM293 170.5C294.933 170.5 296.5 172.067 296.5 174H293.5C293.5 173.724 293.276 173.5 293 173.5V170.5Z" fill="#393939"/>
</svg>
